<svg id="Layer_1" data-name="Layer 1" xmlns="http://www.w3.org/2000/svg" viewBox="0 0 605.65 605.65"><defs><style>.cls-1{fill:#567348;}.cls-2{fill:#5d8557;}.cls-3{fill:#345142;}.cls-4{fill:#3f6739;}.cls-5{fill:#323d2b;}.cls-6{fill:#60774f;}.cls-7{fill:#688065;}.cls-8{fill:#3b542c;}.cls-9{fill:#446032;}.cls-10{fill:#2e4b38;}.cls-11{fill:#2f4b33;}.cls-12{fill:#354f30;}.cls-13{fill:#567c54;}.cls-14{fill:#34442e;}.cls-15{fill:#4d6449;}.cls-16{fill:#516741;}.cls-17{fill:#3d5f34;}.cls-18{fill:#426a59;}.cls-19{fill:#1f382a;}.cls-20{fill:#303a25;}.cls-21{fill:#557646;}.cls-22{fill:#6b9f66;}.cls-23{fill:#3d6759;}.cls-24{fill:#7a8d6d;}.cls-25{fill:#244532;}.cls-26{fill:#223a28;}.cls-27{fill:#2f4d3f;}.cls-28{fill:#6c965f;}.cls-29{fill:#78a172;}.cls-30{fill:#656437;}.cls-31{fill:#a6bc7e;}.cls-32{fill:#546152;}.cls-33{fill:#4f7a6b;}.cls-34{fill:#557a49;}.cls-35{fill:#5c8070;}.cls-36{fill:#8e9a67;}.cls-37{fill:#416359;}.cls-38{fill:#405b41;}.cls-39{fill:#355043;}.cls-40{fill:#72937c;}.cls-41{fill:#485437;}.cls-42{fill:#6d9698;}.cls-43{fill:#85a678;}.cls-44{fill:#5b7c61;}.cls-45{fill:#969c8d;}.cls-46{fill:#445d2d;}.cls-47{fill:#d7c1d0;}.cls-48{fill:#bfa8b3;}.cls-49{fill:#8e988f;}.cls-50{fill:#709587;}.cls-51{fill:#4c6144;}.cls-52{fill:#b4b1ae;}.cls-53{fill:#796d6e;}.cls-54{fill:#5f8060;}.cls-55{fill:#415d42;}.cls-56{fill:#857e64;}.cls-57{fill:#476f3b;}.cls-58{fill:#64735f;}.cls-59{fill:#557165;}.cls-60{fill:#6a6c57;}.cls-61{fill:#4e5952;}.cls-62{fill:#111418;}.cls-63{fill:#779c63;}.cls-64{fill:#66946d;}.cls-65{fill:#689a76;}.cls-66{fill:#6a7a70;}.cls-67{fill:#7a957d;}.cls-68{fill:#829886;}.cls-69{fill:#eeafe4;}.cls-70{fill:#3a5a4c;}.cls-71{fill:#616c4d;}.cls-72{fill:#5a833d;}.cls-73{fill:#3e4e32;}.cls-74{fill:#283120;}.cls-75{fill:#d0a1d1;}.cls-76{fill:#3f5748;}.cls-77{fill:#517166;}.cls-78{fill:#7f7c63;}.cls-79{fill:#709081;}.cls-80{fill:#3d5d3c;}.cls-81{fill:#93947e;}.cls-82{fill:#537152;}.cls-83{fill:#8ab1b7;}.cls-84{fill:#729483;}.cls-85{fill:#809280;}.cls-86{fill:#586b49;}.cls-87{fill:#111412;}.cls-88{fill:#e5afe1;}.cls-89{fill:#de8dd7;}.cls-90{fill:#f8b9f1;}.cls-91{fill:#e495d7;}.cls-92{fill:#be6fa9;}.cls-93{fill:#2d492a;}.cls-94{fill:#6a803e;}.cls-95{fill:#456057;}.cls-96{fill:#49523d;}.cls-97{fill:#293a2f;}.cls-98{fill:#1c3222;}.cls-99{fill:#4e6e42;}.cls-100{fill:#222b25;}.cls-101{fill:#4e6f64;}.cls-102{fill:#494b38;}.cls-103{fill:#3d5b42;}.cls-104{fill:#c68ebc;}.cls-105{fill:#bf7eaa;}.cls-106{fill:#4e483f;}.cls-107{fill:#fabef9;}.cls-108{fill:#5a6f48;}.cls-109{fill:#9d8a9a;}.cls-110{fill:#fcb4f3;}.cls-111{fill:#84ac99;}.cls-112{fill:#99b896;}.cls-113{fill:#52786e;}.cls-114{fill:#92bbc5;}.cls-115{fill:#6e948f;}.cls-116{fill:#649182;}.cls-117{fill:#789086;}.cls-118{fill:#394e36;}.cls-119{fill:#538140;}.cls-120{fill:#374449;}.cls-121{fill:#100f10;}.cls-122{fill:#603328;}.cls-123{fill:#211b1b;}.cls-124{fill:#7ea6a4;}.cls-125{fill:#6f3f2e;}.cls-126{fill:#635840;}.cls-127{fill:#6f6144;}.cls-128{fill:#493e32;}.cls-129{fill:#ddcbb0;}.cls-130{fill:#3c423d;}.cls-131{fill:#c1ad8f;}.cls-132{fill:#aca190;}.cls-133{fill:#8c8b7f;}.cls-134{fill:#393b37;}.cls-135{fill:#a7a69b;}.cls-136{fill:#a99f95;}.cls-137{fill:#616360;}.cls-138{fill:#688a72;}.cls-139{fill:#8cad5d;}.cls-140{fill:#76934d;}.cls-141{fill:#5d8653;}.cls-142{fill:#7c9285;}.cls-143{fill:#98c1b0;}.cls-144{fill:#d783c6;}.cls-145{fill:#f08edb;}.cls-146{fill:#2e3d2c;}.cls-147{fill:#df95d2;}.cls-148{fill:#ecbbe1;}.cls-149{fill:#2c372b;}.cls-150{fill:#eaa5e1;}.cls-151{fill:#f3a6f4;}.cls-152{fill:#e18ad2;}.cls-153{fill:#516936;}.cls-154{fill:#f8c1fa;}.cls-155{fill:#ba5e9c;}.cls-156{fill:#ca78b5;}.cls-157{fill:#57605a;}.cls-158{fill:#7e9167;}.cls-159{fill:#333e2f;}.cls-160{fill:#8f7d85;}.cls-161{fill:#85a5a6;}.cls-162{fill:#29362c;}.cls-163{fill:#cb7db9;}.cls-164{fill:#291c13;}.cls-165{fill:#2c2117;}.cls-166{fill:#b1669a;}.cls-167{fill:#d47acf;}.cls-168{fill:#ab4d23;}.cls-169{fill:#4f2514;}.cls-170{fill:#60301b;}.cls-171{fill:#b6669f;}.cls-172{fill:#64424f;}.cls-173{fill:#af8490;}.cls-174{fill:#5b5852;}.cls-175{fill:#906075;}.cls-176{fill:#d086c8;}.cls-177{fill:#f8a7ed;}.cls-178{fill:#607354;}.cls-179{fill:#ab9c93;}.cls-180{fill:#90a84f;}.cls-181{fill:#c87fbb;}.cls-182{fill:#364d30;}.cls-183{fill:#d48cc5;}.cls-184{fill:#dc8ed6;}.cls-185{fill:#f59bf0;}.cls-186{fill:#ab5089;}.cls-187{fill:#f997e8;}.cls-188{fill:#343029;}.cls-189{fill:#4e624c;}.cls-190{fill:#f3b5f3;}.cls-191{fill:#7fabad;}.cls-192{fill:#73a2a2;}.cls-193{fill:#2e3a2f;}.cls-194{fill:#58817a;}.cls-195{fill:#826f51;}.cls-196{fill:#6f604b;}.cls-197{fill:#725f48;}.cls-198{fill:#966d54;}.cls-199{fill:#715f4a;}.cls-200{fill:#61523e;}.cls-201{fill:#6b5b46;}.cls-202{fill:#476b4e;}.cls-203{fill:#796352;}.cls-204{fill:#b75b39;}.cls-205{fill:#6f5540;}.cls-206{fill:#483933;}.cls-207{fill:#1f1e1e;}.cls-208{fill:#7a6650;}.cls-209{fill:#646664;}.cls-210{fill:#92948f;}.cls-211{fill:#908b89;}.cls-212{fill:#f9a5f0;}.cls-213{fill:#ee92d9;}.cls-214{fill:#7c7c5e;}.cls-215{fill:#8a607a;}.cls-216{fill:#e398d4;}.cls-217{fill:#c96cb4;}.cls-218{fill:#e286d8;}.cls-219{fill:#855668;}.cls-220{fill:#a86e8b;}.cls-221{fill:#f0aced;}.cls-222{fill:#393439;}.cls-223{fill:#575057;}.cls-224{fill:#90b6c0;}.cls-225{fill:#525341;}.cls-226{fill:#725d50;}.cls-227{fill:#927a70;}.cls-228{fill:#8f4f36;}.cls-229{fill:#513626;}.cls-230{fill:#7a4630;}.cls-231{fill:#894320;}.cls-232{fill:#c895a1;}.cls-233{fill:#a45222;}.cls-234{fill:#c373b4;}.cls-235{fill:#e28acf;}.cls-236{fill:#a06b95;}.cls-237{fill:#9f8a9e;}.cls-238{fill:#a8c05b;}.cls-239{fill:#8a766f;}.cls-240{fill:#bf76b0;}.cls-241{fill:#694256;}.cls-242{fill:#c76c70;}.cls-243{fill:#b07da0;}.cls-244{fill:#bc502e;}.cls-245{fill:#f9b9f3;}.cls-246{fill:#4d4d4b;}.cls-247{fill:#e191d8;}.cls-248{fill:#433f3b;}</style></defs><path class="cls-1" d="M595.43,68.42v63.84c-8.33,7.82-15.58,4.15-22-2.55-3.53-3.66-6.42-7.69-11.63-9.43-13.7-4.56-15.47-3.58-17.57,10.84-2.6,17.85-27.05,37.51-47.1,38.19-13.09.44-26.3-1.63-39.24,1.74-13.54-1-28.13,3.11-38.93-10.27-3.54-4.38-10.61.8-16-.88-6.26-1.43-13.66-.11-17.41-7.3-.79-4.37,2.45-6.24,5.56-7,9.3-2.34,9.14-8.2,6.61-15.41-1.8-5.15-3.72-10.38.32-15.48,7.56-3.77,9.27,4.37,13.8,6.74,11.12,10.2,21.55,4.55,32-1.38,7.33-4.16,13.93-11.4,23.7-6,2.84,9-4.64,11.48-9.88,15.3-5.57,4.05-15.09,6.26-11.58,15.6,3.65,9.7,13.12,8.12,21,6.46,12.39-2.59,24.29-7.85,37.5-4.85,4.45,1,8.12-2,11.11-5.2s6.85-6.49,4.39-10.94c-2.26-4.08-6.14-.37-9.17.25-6.74,1.37-13.69,1.05-17.46-4.69-5.49-8.36-12.49-10.44-21.58-9.18-1.66.22-3.11-1.19-4.28-2.51-2.41-4.21.23-7.63,2.49-10.28,8.31-9.73,12.08-19.84,5.14-32-1-1.77-.44-4.11,0-6.19,2.8-5.61,4.64-11.81,9.47-16.23,8.25-3.21,16.2.06,23.32,2.92,12.43,5,23.3-1.11,34.78-2.64,3.11-.41,4.73-3.51,5.74-6.34,2.85-8,8.78-13.25,15.42-18a7.28,7.28,0,0,1,5.32.58c4,8.84,1.19,20.44,10.91,27C586.3,57.23,590.41,63.28,595.43,68.42Z" transform="translate(8.5 7)"/><path class="cls-2" d="M105.08-5.62h7.66c4.36,3,6.62,7.52,8.7,12.19,4.18,9.34,9.43,17.44,18.31,23.61C149.24,36.77,150.34,47,146,57.52c-3.23,7.86-3.84,15.59.28,23.25,1.87,3.47,4.5,6.37,8.92,6s6.36-3.94,7.42-7.69c1.76-6.21,1.43-12.53.62-18.89-2.24-17.65,1.91-21.77,20.16-20.38,7.54,3.6,7.64,12.73,13.24,17.8,2.75,8.85,1.31,18.41,5,27.19,2.84,6.77-5.65,9.85-6,15.77a60.44,60.44,0,0,0-3,13.94c-1.86,3.8-4.49,7.24-5.22,11.55-6.91,13.12-13,29.69-30.66,27.92-14.74-1.47-25.95,6.46-39.16,8.12-5.89.75-8.41,6.67-11.29,11.4-3.22,3.86-5.76,8.21-9,12-2.85,3.39-5.37,7.91-11.17,5.47-6.53-9.76-.13-18.92,3.81-26.13,10.88-19.88,4.28-39.21.14-58.23C87.57,95.06,75.27,89.53,65.83,83.3c-6.74-4.43-13.73-8.71-19.38-14.23-6.08-6-11.22-6.77-17.71-1.74-3.52,2.73-7.14,5-11.28,1-1.42-3.84,1.32-6.37,2.73-9.38,4.5-9.57,3.57-18.19-5.25-24.92-8-6.09-11.3-14-8.12-23.51C10.16.44,18.5-2.33,28.23-1.74c4.69.28,9.27-1.13,13.88-.6C48.48,6.05,41,8.58,35.8,11.34c-12.24,6.55-12.73,9.22-3.86,19.09,4.61,5.13,8.09,5.33,12.19-.1A35.28,35.28,0,0,1,65.06,16.8c5.46-1.25,7.65-6.48,11.58-9.6C80.36,4.25,84.32,1,89.23,3.82S94.53,12,92.6,16.24C87.42,27.57,91.45,36.38,98,45.48c5.49,7.63,7.21,17.13,10.11,25.94a62.74,62.74,0,0,0,12.64,21.83c3.75,4.3,9.66,3.37,8.89-2-2.19-15.34,0-30.81-2.61-46-.51-3-3.55-4.63-5.93-6.48A15.64,15.64,0,0,1,118.28,36a61.4,61.4,0,0,0-10.36-10.77C98.16,17,97.31,5.47,105.08-5.62Z" transform="translate(8.5 7)"/><path class="cls-3" d="M15.69,597c-28.15,7.41-23.54-12-23-28.09C-3,563.61,2.91,563,8.89,563.54,24,565,37.06,560.24,49.43,552c9.57-6.41,20.47-9.75,31.9-11.12,5.08.68,8.68-4.74,13.94-3.51,3.24,1.5,4.74,4.59,6.66,7.33,9.2,13.12,18.3,12.74,26.81-1.11,1.1-1.79,2-3.69,3.21-5.4,11-12.16,11.09-12.27,25.49-2.73,6.51,4.3,11.3,4.84,14.66-3.67,2.44-6.16,7.09-9.25,14.1-7,7.29,4.43,19.72.62,21.74,13.52,1.65,10.43,7.2,14.41,17.11,11.4,6.92-2.11,13.65-4.75,21-2.91,10.67,2.68,15.22,15,6.65,21.14a88.5,88.5,0,0,0-23.82,24.88c-1.29,2-4.29,2.58-6.3,4.13H204.68c-3.55-3.58-8.92-5-11.43-9.86-9.93-19.18-28.73-20.46-46.83-22.82-7.43-1-13.48,2-16.57,9.14C125.28,584,117.66,591.59,107.64,597h-23c-3.22-5.29,0-9.67,1.87-14.36,4.71-11.7.56-17.71-12.06-18.44A23.62,23.62,0,0,0,56,571.34C44.38,582.92,31.48,592.12,15.69,597Z" transform="translate(8.5 7)"/><path class="cls-4" d="M-7.29,183.32v-5.1C6.59,163.27,20.82,148.6,28.8,129.29c1.29-3.14,3.08-6.12,3.54-9.53,1.27-9.49-5-15.07-14.61-12.93-8.68,1.94-17.44,5.45-25-2.66V96.51C3,87.15,9.65,73.37,26.19,71.79c6.17-.59,11.54-1,17,2.07C53.51,79.64,65.26,82.63,75,89.76c16.34,12.53,26.19,45.55,18.6,64.81a133.72,133.72,0,0,0-7.32,26.71c-.87,5.09.76,12.44-6.57,13.37-8.14,1-8.38-6.62-10.14-12-6.51-14.25-15.44-17-28.35-8.38-2.5,1.65-5,3.11-8.08,3.09-7.51-2.13-12.45,3.66-18.5,6C7.27,186.27,0,190.86-7.29,183.32Z" transform="translate(8.5 7)"/><path class="cls-5" d="M595.43,545.9v7.66c-7.33,7.46-14.53,4-22,0-14.4-7.81-30.29-6.67-39.74,2.6-2.23,1.64-5.1,2.2-7,.59-13.07-11-25.9-7.72-38.78.19-12.56.54-21.45-7.2-30-14.49-6.41-5.47-4.57-10.79,3.72-14.15,2.72-1.11,5.66-1.7,8.38-2.92,6.33-2.83,8.25-8.28,8.13-14.53-.1-5.74-3.3-9.38-9-10.75-6.86-1.65-10.74-6.32-12.76-12.82a46.89,46.89,0,0,1,4.33-25.61c2.48-5.39,6.92-8.75,13.21-6.48,6,2.17,7.1,7.15,4.3,12.26-3.5,6.38.5,9.13,4.68,12.13,5.26,15.64,21.06,25.15,24.25,42.36,1.06,5.71,6.11,3.18,8-.85,3.85-8.15,6.43-16.21.88-25.23-3.72-6.05-9.34-13.34,0-20,3.4-.61,5.8,1,7.84,3.41,2.61,7.4,7.66,5.82,13,3.37,14.5-4.25,27.7-12.28,43.19-13.25,5.45-.34,10.84-2.32,15.35,2.44v28.09a41.83,41.83,0,0,1-7.87,6.08c-13.71,8.64-14.51,20.05-1.9,30.3A77,77,0,0,1,595.43,545.9Z" transform="translate(8.5 7)"/><path class="cls-6" d="M457.57,165.49c26.2-.42,54.24,5.71,73.35-20.17,3.12-4.22,7.75-9.09,7.65-13.56-.21-8.81-1.39-20.82,7.56-21.26,9.26-.46,22.64,1.55,28.34,11.76,5.21,9.32,12,10.73,21,10v23c-8.38,4.23-5.93,13.65-9.64,20.14-2.29,1.84-4.59,1-7,.23s-5.19-4.42-7.39-.38c-1.94,3.58.67,6.41,3.47,8.28,3.88,2.59,4.89-1,6.19-3.47a13.5,13.5,0,0,1,4.26-4.44c9.81-.78,5.78,9.32,10.12,12.83v58.73c-6.28,7.79-13.82,14.48-18.17,24-2,4.28-5,10.58-12.42,7.56-5.09-7.51,1.42-13.65,2.47-20.44.19-1.24.89-2.86,0-3.62-1.89-1.55-2.8.62-3.78,1.67a58.36,58.36,0,0,1-7.25,7.16c-12.1,9.17-21.85,6-25-8.61-1.2-5.48-6.64-10.56-2.4-16.86,3.67-4.12,9.55-1.85,13.62-4.76,5.6-1.71,11.36-2.91,16.12-6.87,13.61-11.32,14.18-23.1,1.52-36.33-1.78-1.86-3.42-3.76-3.9-6.38-.13-3.81-1.25-7.46-1.73-11.22-2.05-15.87-4.89-17.23-19.14-9.08-8,4.56-15.15,10.85-25.17,11-9.75.49-19.29-.36-28.92,3.06C470.78,181.12,461.08,175.31,457.57,165.49Z" transform="translate(8.5 7)"/><path class="cls-7" d="M314.5-5.62h79.17c7.68,15.92,7.68,16,27.5,14.62,4.24-.28,8.4-.7,11.48,3.17.82,3.8-1.8,5.64-4.24,7.59-7.89,1.2-15.59,2.81-20,10.57-1.77,1.06-4.31,1.36-5.31,3.14-2.28,4.06-11,4.68-7.87,11s9.72,8.83,17.08,8c6.43-.68,12.6-5.52,19.35-1.25,3.15,4.75,4.28,10.37,6.52,15.55-1.17,5.73-6.32,6.89-10.51,7.46-6.33.86-9.41,4.84-12.49,9.41-2.23,2.35-4.74,4-8.16,3.55-5.32-11.62-10.81-23.1-25.2-25.94-14.37-5.83-26.39-16.85-42.46-19-3.34-.45-6.64-1.7-10-1.14-5.36.9-13,.22-15.1,4.61s6.13,4.83,8.85,8.28c10.36,13.13,9.16,27.25,4.23,41.89-3.35,5.83-7.91,8.94-14.83,6.89-4.33-3.9-1.72-7.14.5-11.07,8.75-15.49,3.17-27.23-14-29.74-6.94-1-11.79-4.34-14.43-10.84-1.15-9.26,4.64-14.42,11.89-17.4C309.85,28.23,315.89,19.56,312,5,311.06,1.23,311.32-2.64,314.5-5.62Z" transform="translate(8.5 7)"/><path class="cls-8" d="M324.72,597H294.07c-9.11-8.69-10.66-21.91-18.94-31.3-3.62-4.1-1.24-9.93,2.07-14.12,8.49-10.79,8.5-22.58,4.75-35a19.07,19.07,0,0,1,3.41-13.75c13.55-14.54,16.92-32.2,16.95-51.42,0-12.08-1-24.32,1.65-36.31,3.87-5.05,7.83-2.94,10.19,1,2.25,3.74,5.55,6.26,8.2,9.5,1.2,3.12,2.86,6.06,3.4,9.43-.11,16.14,6.85,31,8.54,46.8-1.83,6.5,2.42,12.64,1.11,19.1A84.48,84.48,0,0,0,328,532.73c-.45,11.41-.85,22.76-2.63,34.07-1.1,7-2.8,14.07,1.41,20.92C328.76,591,327.11,594.25,324.72,597Z" transform="translate(8.5 7)"/><path class="cls-9" d="M-7.29,183.32c11.8,1,21.21-4.65,30.16-11.16,5.64-4.11,9.89-6,10.73,3.53,3.58,3.59,1.6,7.34.31,11.05a12.06,12.06,0,0,1-1.46,2C21.67,200.47,18.56,212,23.9,220.43c5.82,9.2,23.07,14.94,35.47,11.8,18.09-4.57,26.08.65,28.85,18.89a11,11,0,0,1-4.72,8.64c-19.23,13.05-21.21,33.4-23.2,53.82-.66,6.87-2,13.87-9.2,16.78-9,3.6-13.64-4.24-19.59-8.43a7.85,7.85,0,0,1-2.07-7.21c.82-2.15,2.63-3.72,4.73-3.52,12.67,1.23,13.28-8,13.63-16.35.41-9.8-8.24-13-15-16.74-3.35-1.85-6.36,1-8.3,4-2.63,4.12-1.73,7.86,1,11.68,3.84,5.4,9.06,10.74,3.11,17.95-5.33,1.2-8.69-1.72-11.72-5.41a47.87,47.87,0,0,0-9-12.1C2.17,288.87,1.08,282.83,5,276c4.15-5.65,10.74-9.23,13.34-16.44C22.55,247.92,18,240.51,5.67,240c-4.54-.2-9.39,1.21-13-3Z" transform="translate(8.5 7)"/><path class="cls-10" d="M324.72,597c-7.37-33.09-7.24-65.61,7.29-97.05,6.12.34,8.63,4.81,10.42,9.63,3.81,10.24,8.2,20.31,10.47,31,.39,5.17-.79,11.75,6.73,12.54,8.47.89,16.86.21,19.77-10.31a12.77,12.77,0,0,1,2.42-3.09c10.05-4.64,21.4-3,25,6.22,5.09,13.08,13.74,17,26.77,19C448,567,455.64,584.28,449.86,597H406.44c-6.39-14.54-18.43-18.37-33.06-17.78-9.73.39-19.18-3.56-29-2.16-2.45.35-5.5.26-5.77,3.56-.21,2.52,2.5,3,4.23,4.1,4.6,3,11.87,4,10,12.28Z" transform="translate(8.5 7)"/><path class="cls-11" d="M595.43,471.85l-61,15.32a8,8,0,0,1-4.62-3.06,10.42,10.42,0,0,1-1.32-3.46c-.58-6.55,4.06-9.66,8.49-13.08,3.6-2.77,8-5.19,6-11.23s-4.74-10.52-11.59-12.09c-5-1.14-10.18.61-15.06-1.45-4.18-3.69-5.56-8.62-6.27-13.84,6.8-19,28.29-27,45.15-16.45,5.5,3.47,9.8,4.38,14-1.3,7.72-17.77,13.43-20.67,26.23-13.41Z" transform="translate(8.5 7)"/><path class="cls-12" d="M94.75,538.23l-10,7.65c-6.29-11.18-16.66-17-27.95-22-6.25-2.75-12-3.72-17.71.68-2.58,1.76-4.95,3.79-7.83,5.06-6.79,2.27-12.87,6-19.44,8.73-6.35,2.58-12.73,4.35-19.06-.09v-7.66c2.83-3.48,6.59-4.94,10.93-5.71,6.71-1.2,12.65-4.48,12.79-11.91.14-7.82-2.58-15.09-10.63-18.67-4.56-2-9.9-2.58-13.09-7.12V443.76c2.4-2.4,5-4.64,7.33-7.06,10.75-11.08,9.53-19.93-3.61-27.77a22.14,22.14,0,0,1-3.72-3.47V385c5-4.18,9.72-2,14,.88,11.15,7.34,20.37,16.54,26.07,28.82.81,5.54-2.34,9.58-5.26,13.8-3.12,4.53-6,9.17-7.76,14.52-4.43,13.71-4,14.66,10,18.7A8.72,8.72,0,0,1,33,463.82c5.33,10,9.54,20.29,17.33,29.21,9.56,10.93,18.65,20,34.28,21,8,.52,13.71,6.35,14.59,15.3C99.26,533.12,98.24,536.3,94.75,538.23Z" transform="translate(8.5 7)"/><path class="cls-13" d="M123,35.23c8.4,2.12,12.09,7.42,10.45,16-2.32,12.23-2.22,24.14,1.56,36.26,1.64,5.24,2.94,12.93-4.36,15.51-7.48,2.66-14.57-1.58-16.11-8.64C108.37,65.81,78,44.6,89.13,10.76,89.41,9.9,86.46,8,85,6.54c-7.08,16.24-28.9,13-36.95,27.91-2.77,5.14-6.91,11.38-12.36,7A58.13,58.13,0,0,1,19.14,20.06c-2.47-5.68,3.27-11.19,9.91-12.3,6.1-1,11.75-2.07,14.72-8.3-1.59-2.93,1.14-3.68,2.57-5.08h58.74C100.4,12.63,112.41,23.57,123,35.15c-2.39,2.24-5.31,2.24-8.34,2.24-3.92,0-9-3.94-11.44,1.28-1.92,4.17,2.51,7.66,4.55,11.24a140.78,140.78,0,0,1,7.85,16c1.08,2.6,1.77,7,4.82,6.67,3.82-.43,1.83-4.85,2.4-7.51C124.94,55.13,121.86,45.16,123,35.23Z" transform="translate(8.5 7)"/><path class="cls-14" d="M286.43,517.83c1.47,4.39,5.57,10.66,4,12.9-16.52,23.35-1.88,44.47,3.65,66.23H222.56C229.5,585.65,230,569.38,248,566.6c4.5-.7,7.2-7.42,3.56-11.57-6.51-7.41-14.61-4.19-22.15-.85-16.35,7.25-24.73,1.75-25.57-15.91,5.31-.64,10.1-4.34,15.81-2.68,14.69.21,29.18-4.93,44-1.38,3.66.87,6-2.2,7.46-5.63s3.06-7,5.93-9.71C280,516.74,283.07,516,286.43,517.83Z" transform="translate(8.5 7)"/><path class="cls-15" d="M449.86,597c-2.85-16.11-7.53-29.89-28.51-28.3-11.27.85-14.49-8.12-17.46-17-3.4-10.15-9.9-14.29-20.23-8.31-3-2.68-2.58-5.6-.64-8.61,6.57-5.3,14.05-4.21,21.61-3.11,4.73.69,10.8,4.36,13.77-1.23,2.68-5,2.06-11.49-.84-17-2.05-3.9-6.53-7.09-3.22-12.39,16-4.7,25.64.68,27.83,17.43,2.9,22.19,17,32.88,36.39,39.15,4.19,2,9.57-.68,13.27,3.31,2.27,17.6-3,29.19-16.43,36.09Z" transform="translate(8.5 7)"/><path class="cls-16" d="M529.16,239.53c8,27.57,19.06,33.83,35.69,5.43,1.09-1.86,4.56-2.32,6.93-3.44,1,3,3.58,6.5,2.85,9-2.66,9.24-6.4,18.17-9.74,27.21,1.88,5-1.11,9-2.49,13.34-5,16,.36,21.77,16.83,18.14,2.45-.55,4.71-1.87,7-2.87,3.59-1.53,6.59-.77,9.15,2.08v5.1c-.6.59-1.11,1.43-1.84,1.74-21.93,9.11-38,25.94-54.93,41.71-6.52,1.34-12.16.37-15.87-5.81-1.29-5.51,1.72-10,3.61-14.69,2.86-3.5,4-6.67-.42-10.26-3.42-2.79-6.81-6.1-5.62-11.42,7.75-8.76,10.9-17.22,5-29.41a54.45,54.45,0,0,1-5-29.62c1.92-5.85,3.81-11.5-.36-17.44-1.67-2.37-1-5.56,2.11-7.35C527.34,231.45,530.57,233.58,529.16,239.53Z" transform="translate(8.5 7)"/><path class="cls-17" d="M539,355c12.26-22.77,29.9-38.21,56.48-41.49V397.8c-14.22-2.44-19.44,6.62-22.9,17.92-2.93-.63-4.17-3.27-6.1-5.12-1.48-2.51-4-3.91-6.19-5.65-4.69-4.89-11-8.76-10.54-16.82,1.09-5.26,5-7.18,9.62-8.25a25,25,0,0,0,10.77-2.34c4.27-2.17,9-4.29,6.06-10-2.5-4.81-7.21-5.05-11.89-2.65-2.59,1.33-5.09,2.84-8.14,3.15C547.67,367.24,539.65,365.94,539,355Z" transform="translate(8.5 7)"/><path class="cls-18" d="M20.65,303.26l7.75,7.51c2.35-.4,3.34.5,2.8,2.89l2.46,5.19c12.85,12.79,19.65,28.85,24.75,45.82,3.13,10.44-3.82,19-5.53,28.5a8.56,8.56,0,0,1-9.49,1.25c-12.69-6.59-26.73-9.89-39.32-16.71-5.59-3-8.17-8.22-11.36-13.1V339.08c4.15-4.53,9.06-2.89,14.06-2,10.84,2,13.87-1.78,10.24-12.26A28.78,28.78,0,0,0,6.34,311.14C1.2,307.38-3,302.77-7.29,298.22v-5.1C-2.07,288,3,289.26,8,293.49A140.91,140.91,0,0,0,20.65,303.26Z" transform="translate(8.5 7)"/><path class="cls-19" d="M531.55,556.05c9.11-28.24,28.44-10.18,42.75-7.9,6.57,1,13.34,6,21.13,5.41,0,3.4-.6,6.93.1,10.19,6.07,28.39-4.93,39.44-33.3,33.21-2.79-2.2-6.11-2.4-9.48-2.62-8.6-.57-14.09-4.61-15-13.69C536.86,572.16,528.14,565.63,531.55,556.05Z" transform="translate(8.5 7)"/><path class="cls-20" d="M107.64,597c13.56-11.9,13-38.46,38.11-38.13,27.27.36,49.34,9.91,58.93,38.13Z" transform="translate(8.5 7)"/><path class="cls-21" d="M-7.29,104.17c7.91-1,16.28-.61,23.64-3.16C31,95.91,39.71,104.8,37.74,115.4c-5,27-17.71,50.73-45,62.82Z" transform="translate(8.5 7)"/><path class="cls-22" d="M184.16,42.94c-15.41-2-19.79,3.87-15.33,19,3.21,10.85,1.84,22.31-8,30.08-4.84,3.84-10.72,2.41-15-2.15-8.57-9.15-12.16-20.11-6-31.44,6.71-12.33,3.57-20.24-7.09-28-11.95-8.72-16.39-22.32-20-36h7.67c4.54,3.68,9.44,6.73,12.47,12.26,9.39,17.18,25.43,25.12,43.51,29.78,2.83.73,6,.36,8,3A3.44,3.44,0,0,1,184.16,42.94Z" transform="translate(8.5 7)"/><path class="cls-23" d="M15.69,597C31.84,584.45,47.2,570.68,64.49,560c7.62-4.7,20-3.76,26.91,4.92,10,12.55-2.41,21.73-6.75,32Z" transform="translate(8.5 7)"/><path class="cls-24" d="M488.17-5.62h30.65C522-2.9,522,1,522.75,4.69c2.59,12.36,9.38,16.58,21.75,14.82,6.93-1,14.19-3,20.58,2.19,1.43,3.1-.84,4.79-2.53,6.7-8,5.51-16.15,10.75-23.84,16.63C522,57.81,504.59,55,493.67,37c-3.29-5.41-6.18-11-11.07-15.16C480.84,12,484.89,3.25,488.17-5.62Z" transform="translate(8.5 7)"/><path class="cls-25" d="M-7.29,538.24,31,525.48c2.22,5.9-2.39,8.5-5.82,11.36-6,5-3.52,7.55,2.23,9.58,6.15,2.17,28.11-4.66,31.87-9.77,2.85-3.85-.63-5.21-2.61-7.08-5.74-5.41-14.79-3.62-20.44-9.28,17.47-13.06,27.7,6,41.36,9.67,6.94,1.85,10.79,7.89,7.15,15.92-32.33,1-56.7,33.82-92,23Z" transform="translate(8.5 7)"/><path class="cls-26" d="M352.81,597c-4.84-10.3-29-5-22.46-19.28,6.36-13.9,24.93-5.7,38.13-3.72,15.58,2.33,38.92-7,38,23Z" transform="translate(8.5 7)"/><path class="cls-27" d="M-7.29,364.61l58.78,28.05c8.18,0,11,4.83,11.2,12.15-1.67,8.62-6.43,14.61-14.9,17.4-5.6-2.08-12.34-1.37-16.8-6.54C17.8,406,10.57,388.88-7.29,385Z" transform="translate(8.5 7)"/><path class="cls-28" d="M46.34-5.62,43.77-.54C33.67,3.51,20.36-1,12.88,8.68,7.4,15.8,9.94,24.11,17.16,30.06c15,12.39,12.55,25.21,1.05,38.3.3,3.37-1.32,5.73-4,7.59-1.53,1-2.94,2.16-4.56,3-5.37,3-10.63,6.89-17,2.2V71c5.89-6.69,17.4-7.66,18.91-18.87C13.31,39.55.24,39-4.65,31.85a44,44,0,0,0-2.64-4.28C-16.12-26.62,25.6.82,46.34-5.62Z" transform="translate(8.5 7)"/><path class="cls-29" d="M184.26,40.47c-32.31-.1-52.64-16.78-63.85-46.09h33.2c3.72,5.1,9.73,3,14.59,4.62,3.8,2.89,9,4.38,10,10,.15,3-1.13,5.59-2.49,8.19-4.59,8.75.95,13.1,7.68,16.37,3.36,1.64,8.86-.27,9,6.12C189.93,42.92,187.18,42.68,184.26,40.47Z" transform="translate(8.5 7)"/><path class="cls-30" d="M-7.29,236.94c11.77-2.1,25.69-8.56,31.46,8C29.4,260,21.89,271.05,8,277.85c-5.1,3.26-10.2,5.09-15.27-.05Z" transform="translate(8.5 7)"/><path class="cls-31" d="M260.87-5.62h38.31C308.25,3.57,309,12,301.51,24.47c-4.14,6.92-9.45,12.67-17.52,15.07-7.54.26-10.92-5.37-14.54-10.54s-7.15-10.42-11.21-15.3a15,15,0,0,1-1.67-3.78C256.68,4.37,256.09-1.37,260.87-5.62Z" transform="translate(8.5 7)"/><path class="cls-32" d="M432,12.48c-6.66,1.12-13.29,2.87-20,3.23-14.93.81-28.32-.43-18.33-21.33h71.51c.52,8.11-7.75,7-11.34,10.83C446.27,6.75,441.79,17.62,432,12.48Z" transform="translate(8.5 7)"/><path class="cls-33" d="M-7.29,298.22c13.4,1.94,22.16,10.76,28.07,21.61,3.1,5.68,5.52,16.25,2.52,19.9-9.06,11-20.18-.43-30.59-.65Z" transform="translate(8.5 7)"/><path class="cls-34" d="M-7.29,487.17c18.54-2.15,29.61,7.39,29.7,24.65.1,18.68-15.4,19.29-29.7,18.76Z" transform="translate(8.5 7)"/><path class="cls-35" d="M595.43,308.44c-2.85.6-5.71,1.17-8.56,1.82-10,2.31-21.71,12.37-29.67.42-7.59-11.38-.91-23.28,7.69-32.93,14.07-6.32,10.74-30,30.54-30.59v12.76c-6,9.54-12.32,18.92-18.13,28.59-3.78,6.28-2.87,10.5,5.65,10.28,4.75-.12,9.24.5,12.48,4.54Z" transform="translate(8.5 7)"/><path class="cls-36" d="M281.33,37.71c14.58-10.89,25-23.49,17.85-43.33H314.5c8.65,21.62,6,38.14-19.3,45.88-3.61,1.1-5.83,6.76-8.69,10.31-2.42,5.31-6.23,6-11,3.27C271.13,46.17,272.82,40.7,281.33,37.71Z" transform="translate(8.5 7)"/><path class="cls-37" d="M475.4,597c10.83-9.48,11.26-23.4,15.33-35.78,4.75-11.65,17.5-15.42,30.15-8.17,11.25,6.46,15.78,17.49,16.72,29.79.56,7.42-5.42,11-11.12,14.16Z" transform="translate(8.5 7)"/><path class="cls-38" d="M595.43,68.42C579.9,59.33,558.07,54.18,570,27.87c8.4-7.71,16.89-7.58,25.46-.3Z" transform="translate(8.5 7)"/><path class="cls-39" d="M526.48,597c8-12.66,10.73-25.5-2.23-36.33-10.77-9-22.49-8.29-33.52.55L478,563.72c-2.27-9,6.93-6.59,10.14-10.14,15.34-14.33,29.64-10.54,43.42,2.47,7.94,15.35,10.32,34.87,30.68,40.91Z" transform="translate(8.5 7)"/><path class="cls-40" d="M260.87-5.62l-.16,18c-7.61,16-22.15,19.79-34.29,8.22-10.63-10.12-23-11.71-36.49-10.14-4.52.53-9.14,2.81-13.33-1L166.43,2.11c1.28-3.83,4.42-4.94,8-5C193.7-3.51,213.23-6.44,232,.41c8.93,3.26,15.6,1.12,21.2-6Z" transform="translate(8.5 7)"/><path class="cls-41" d="M595.43,545.9C581.24,543,570,535.4,571.09,520.07c.91-12.84,9.56-21.47,24.34-20.13Z" transform="translate(8.5 7)"/><path class="cls-42" d="M595.43,303.33c-9.21-2.1-26.07,8.6-26.29-6.43-.21-14.7,10.87-29.29,26.29-37Z" transform="translate(8.5 7)"/><path class="cls-43" d="M-7.29,27.57c11.29,5.52,27.57,7,24.71,25.3C15.37,65.91,6.49,72.5-7.29,71Z" transform="translate(8.5 7)"/><path class="cls-44" d="M253.21-5.62c.15,16.24-9.48,18.23-20.74,11.92-21.7-12.17-43.68-8.65-66-4.19-5.73-.16-11.68,0-12.82-7.73Z" transform="translate(8.5 7)"/><path class="cls-45" d="M564.68,22.64c-12.83.06-26.74,3.23-38.16-.76-9.82-3.43-12.13-16.24-7.7-27.5h7.66c1.34,1,3.7,1.54,4,2.94,4.37,17.16,17.4,17.08,31.11,15.87,5.56-.42,10.46-2.8,15.55-4.66C584,6,590.3,6.37,595.43,12.25v5.11C586.06,24.24,575.66,25.13,564.68,22.64Z" transform="translate(8.5 7)"/><path class="cls-46" d="M-7.29,405.46c9.72,0,21.05-2,20.28,13.31-.65,13-3.24,25-20.28,25Z" transform="translate(8.5 7)"/><path class="cls-47" d="M534.14-5.62h43.42c6.71,9.14.81,13.32-6.46,17.55-4.29,2.49-8.64,3-13.28,2.87-7.6.12-15-.72-20.91-6.12C532.5,4.67,530.73,0,534.14-5.62Z" transform="translate(8.5 7)"/><path class="cls-21" d="M10.43,75.94l2.62-2.53C29.22,61.85,44.4,62.84,58.55,77c4.6,4.61,14.3,4.5,13.26,14.34-27.73-19-54.27-20-79.1,5.17V86.3C-2,81.7,5.53,81.11,10.43,75.94Z" transform="translate(8.5 7)"/><path class="cls-48" d="M557.11,12.24c11.27-.86,20.68-3.85,20.45-17.86q22.83-5,17.87,17.87l-35.81,5C558.05,15.94,555.43,15.17,557.11,12.24Z" transform="translate(8.5 7)"/><path class="cls-49" d="M452.31,1.64l12.87-7.26h23c2.86,9.36.79,17.74-5.05,25.36-.91,7.64-4.68,11.14-12.54,8.76-3.37-4,.12-7.27,1.25-10.74,4.65-5.86,5.64-10.26-4.22-10.42-3.25-.06-6.58.15-9.69-1.34C455.45,5.28,453.16,4.37,452.31,1.64Z" transform="translate(8.5 7)"/><path class="cls-50" d="M585,175.63c-3-10.09-10.44-22.47,10.41-20.39v33.19q-5.11-6.28-10.25-12.56Z" transform="translate(8.5 7)"/><path class="cls-51" d="M-7.29,277.8,8,277.85c-5.28,13.21,9,16.68,12.67,25.41L-7.29,293.12Z" transform="translate(8.5 7)"/><path class="cls-52" d="M557.11,12.24l2.51,5c-17.81,2.17-30.87-2.54-33.14-22.87h7.66C536.44,7.22,546,10.7,557.11,12.24Z" transform="translate(8.5 7)"/><path class="cls-53" d="M564.68,22.64l30.75-5.28V27.57l-25.46.3-5.13-.2c-.94,1.1-1.81,1.11-2.62-.15Z" transform="translate(8.5 7)"/><path class="cls-13" d="M10.43,75.94C6.68,83.08.45,86-7.29,86.3V81.19Z" transform="translate(8.5 7)"/><path class="cls-54" d="M457.57,165.49c17.55,14.31,37.56,1.38,56.07,5.07,1.6,2.77.28,4.88-1.52,6.87-8.88,3-20,1.38-25,12.3-6.39,2.17-13.38,1-19.68,3.53-3.47-.33-6.2-2.23-9-4.2-11.75-8.33-19.34-5-21.09,9.53-1,8.18-2.75,15.74-10.05,20.85-12.21,3-19.34-.21-26.59-11.17S393.78,184,390.4,171.9c-.48-9.58,6.16-13.36,13.49-16.58C424.54,144.15,436.88,176.89,457.57,165.49Z" transform="translate(8.5 7)"/><path class="cls-55" d="M467.8,114.36c11.79-5.3,22.44-7.93,28.92,8,1,2.57,7.81,3.92,11.9,3.88,6.5-.08,15.09-14.17,18.83.32,3.15,12.25-7.11,25.39-18,24.73-16.7-1-31.4,4.33-47,6.45-10.7,1.46-20.06-1.3-23.56-12.39-3.67-11.59,7.07-14.56,13.86-19.63,5-3.72,10-7.5,14.93-11.25Z" transform="translate(8.5 7)"/><path class="cls-56" d="M411.55,81.08c2.86-14.56,18.51-7.58,25.51-15.14,1.43-4.09,4.52-5.77,8.64-6.38,11.49-1.72,28.9,8.92,32.55,20,3.18,9.68-3.25,24.91-14.17,29.9a191.87,191.87,0,0,0-28.65,16.24c-8.73,6-17.73,4-26.31-1.08L399,114.21l-1.78-1.16c-3.59-9.94-4.53-19.17,6.64-25.14,6.7.59,6.21,5.91,6.32,10.42.17,6.48,2.27,11.94,8.3,14.56,7,3,12.28-1,16.78-5.82,5.31-5.71,14.32-10.71,10.16-20-4.23-9.42-14.09-4.85-21.68-5.29C419.68,81.56,415.45,84.45,411.55,81.08Z" transform="translate(8.5 7)"/><path class="cls-57" d="M311.87,101.31l12.71-7.46a6.32,6.32,0,0,1,5.11-1.62c11.53,7.92,24.95,11.26,37.91,15.89,9.35,3.33,17.81,3.74,26-2.36,5.87.31,2.31,6.46,5.32,8.54l.05-.09c-2.29,12.72,25,36-12.88,36-6.08,5.79-11.34,3.68-16.22-1.63-.79-1.42-1.87-3.31-1.11-4.7,7.27-13.24-1.67-16.27-11.58-19.61-11.25-3.79-22.3-8-34.48-6.94a17.11,17.11,0,0,1-10.88-2.94c-3.65-3.41-5.86-7.19-3.55-12.27A2.81,2.81,0,0,1,311.87,101.31Z" transform="translate(8.5 7)"/><path class="cls-58" d="M562.22,27.52l2.62.15c-17.24,39.27-46.33,37.59-79.19,22.91-7.23-4.68-10.76-13.31-18.54-17.46-.59-2.89.65-4.66,3.34-5.55l12.67-7.82c1.68.14,4.54-.24,4.88.51C508.57,65.94,536.21,38.43,562.22,27.52Z" transform="translate(8.5 7)"/><path class="cls-59" d="M370.72,144.91l15.4,5.32,17.77,5.09-10.18,15.17c-12.29,9.3-26.8,10-41.33,10.61a10.13,10.13,0,0,1-3.64-1.7c-8.1-9.27-13.06-20.47-18.83-31.16-2.42-4.48-4.36-9.28-.3-14,10.74,1.18,21.28,3.84,32.18,4.21C365.73,138.55,368.77,141.31,370.72,144.91Z" transform="translate(8.5 7)"/><path class="cls-60" d="M409.12,124.67C437,133,450.19,106.51,470.9,97.86c6-2.5,6.37-14.48.11-21.81-9.07-10.62-20-15.51-33.95-10.11C425,65.74,429,59.16,431.94,53c-.33-4,2.49-4.23,5.32-4.47,5.56,2.62,11.74.94,17.41,2.35,9.4,2.33,19.05,4.61,23.28,15.06,10.8,19.12,1.36,34-10.15,48.43l-.09.08c-16.39,3.59-28.86,18.45-46.9,16.69C416.74,130.74,413,126.91,409.12,124.67Z" transform="translate(8.5 7)"/><path class="cls-61" d="M478,65.93,436.77,50.41c-1.28-2.74-.52-5.17,1.09-7.48,9.45-4.56,17.09-14.2,29.49-10.64,13.49-1.31,17.8,6.59,18.3,18.29C485.36,56.84,485.79,63.46,478,65.93Z" transform="translate(8.5 7)"/><path class="cls-62" d="M328.74,135.09l22.52,43.09c-1.21,2.58-3.55,3.95-5.78,5.48-3.14,1.11-5.64,3.89-9.33,3.58-6.15-1.7-7.6-7.35-10.42-12-6.74-11.06-11.49-23.57-23.27-31-4-2.54-8-4.52-12.77-5-7.2,1.88-13-.42-17.74-5.88-5.81-8-13.69-13-22.93-16.19-4.15-1.44-8.06-2.58-10.64,2.43-3.31,14.09-16,15-26.52,17.54-5.4,1.28-11.68,2.1-17.65,1.17-7.56-5.95-8.83-13.94-3.82-23.8.76-5.11,3.61-10,1.54-15.45,9.47-13-3.5-27.43,2.6-40.64,1.07-12,15.59-25.52,28.14-26.28a9.49,9.49,0,0,1,3,1.84c1.55,1.8,1.8,4,1.93,6.25,1.31,5.25,5.47,3.18,8.79,3.34,4.84,1.13,9.51,3.52,14.67,1.47,8.2,1.38,12,9.31,19,12.57,3.13,3,6.56,5.76,8.23,10a10.81,10.81,0,0,1,.39,3.75c-.7,4.87-4.66,7-8.06,9.52-1.25,1.07.24-.5-1,.68-.6.58-1.81,1.46-1.65,1.74.84,1.46,1-.59,1.67-.52,3.68-2.45,6.84-5.87,11.63-6.25,2.71.19,5.64,1.26,6.26,3.66,2.19,8.52,9.77,11.09,15.86,15.37,1.93,2.13,4.52,3.66,5.77,6.4q2.09,5,4.19,10C320.89,118.07,330.41,122.85,328.74,135.09Z" transform="translate(8.5 7)"/><path class="cls-63" d="M87.28,191.11l15.33-20.57c15.54-10.93,22.32-8.45,26.76,10,.69,2.84,1.75,5.57,2.26,8.45-2.4,14.56-6.24,29-2.29,44-.17,5.83.19,11.56-2,17.24-5.1,13-11.58,16.06-25.17,11.28-3.24-7.17-8.39-13.45-10.85-21.05.72-2.11,2.41-3.23,4.4-4.08,13.17-5.69,17.63-15,13.9-28.93-1-3.71-2.14-7.54-6.62-8.29-3.67-.62-6.42,1.49-8.64,4.19-3.1,3.77-4.9,9.13-11.24,8.88-6.13-3.85-4.06-8.9-2.11-13.94C82.35,195.26,83.56,192.07,87.28,191.11Z" transform="translate(8.5 7)"/><path class="cls-64" d="M128,188.41c-6.32-9-4.66-29.34-25.39-17.87,14-15.3,30.18-24.29,52.16-21,18.16,2.7,21.4-14.46,29.45-24.93,5.24-.68,5,2.75,4.56,6.18-.62,5.23-3.73,10-2.84,15.51,5.7,8.86,1.63,13.33-7.11,15.41-2.83.68-5.93,0-8.66,1.42-11.83,5.24-13,8-8.5,20.51.84,3.81.5,7.39-1.83,10.59-4.05,5.85-9.32,7.71-14.22,1.89S134.44,189.63,128,188.41Z" transform="translate(8.5 7)"/><path class="cls-65" d="M100.77,88c.5-.12-3.49,2.27-5.86,1.17C76.63,80.66,56.28,73,50.2,51.68c-2.68-9.41,8.93-17.42,17.55-15.25C90.37,42.15,95.53,62.21,100.77,88Z" transform="translate(8.5 7)"/><path class="cls-13" d="M87.28,191.11l-2.64,7.42c-12.22,5.63-15.08,3.66-16.79-11.57.49-3.34.86-6.74,4.06-8.85,4.93,3.15-.72,14.09,8.26,12.66,2.26-.36,4-10.1,4.3-15.61.83-17.25,9.8-33,4.2-52C85,110.58,82.53,99.36,71.81,91.34,55.33,75.17,37.7,62.81,13.05,73.41l5.16-5C52.06,45.51,65.66,80.93,84.38,94.24c20.65,14.68,18.24,40.87,12.55,64.27C94.25,169.51,90.53,180.25,87.28,191.11Z" transform="translate(8.5 7)"/><path class="cls-66" d="M225.15,35.18c-6.1,1.9-19.38-2.6-11.11,12.42.24.45-4.61,4.33-4.7,4.23-10.89-10.92-9.32,5.86-14.8,6.59-12.53.91-7.08-10.21-10.37-15.49,0-.82.07-1.64.09-2.47l7.83-2.23c2.42-4.68,7.13-6,11.48-8,4.07-1.22,8.1-2.63,12.46-1.76C219.79,29.73,225.3,28.63,225.15,35.18Z" transform="translate(8.5 7)"/><path class="cls-67" d="M181.68,147.62l-7,1.6c.86-2,1.24-4.51,2.69-5.9,5.42-5.21,11.64-9.88,6.89-18.74l4.89-10.26a1.65,1.65,0,0,1,2.72,0c-8.54,6.16,13.15,13.14-.52,19.17.18.31.3.8.56.89a18.49,18.49,0,0,0,2.37.52,4.29,4.29,0,0,1,1.89,4c-.71,3.93,1.86,9-4,11.11A20.7,20.7,0,0,1,181.68,147.62Z" transform="translate(8.5 7)"/><path class="cls-68" d="M191.83,114.35l-2.71,0q1.4-7.62,2.81-15.25l7.06,3.46Q195.4,108.44,191.83,114.35Z" transform="translate(8.5 7)"/><path class="cls-69" d="M217.24,537.82c-4.39,3-8.74,7-13.45.45-1-14-17.59,1.86-19.56-10.23-8.65-11.76-1.86-24.1-1.36-36.16.43-6.19.89-12.4,4.8-17.59,8.81-4.44,15.4-12.93,25.84-14.74,4.88-.84,5.86-5.75,8.73-8.75,4.41-8.26,6.22-17.77,12.49-25,2.79-3.22,6-7.31,10.57-4.89s3,7.13,1.73,11.37c-2.83,9.46-10.36,16.59-12.73,26.2,0,3.19-2.8,8.35,4.84,5,5.59-2.45,11.84-9.86,17.82-2.8,5,5.91-1.61,11.32-4.21,16.8-2.29,4.85-3.89,10.14-3.48,15.75C245.56,509,234,520.15,225.82,533.29A9.32,9.32,0,0,1,217.24,537.82Z" transform="translate(8.5 7)"/><path class="cls-70" d="M187.16,489.81q-1.47,19.11-2.93,38.23c-5.08-2-6.7.64-7.61,5.19-3.67,18.41-14.22,14.49-23.19,5.49-8.12-8.16-12.66-7.35-17.52,2a4,4,0,0,1-2.13-1.26c-11.44-17.15-11.44-17.14-33.06-12.65a5.53,5.53,0,0,1-3.63-.74c-4.62-10.68,2.13-15.13,10.31-18.78,4.08-1.82,9.31-.15,12.65-4.23,9.26-7.29,19.58-13,29.33-19.48,3.47-2.33,7.42-4.07,11.87-2.63,4.54,6.1,9,11.88,18.07,6.72A6.07,6.07,0,0,1,187.16,489.81Z" transform="translate(8.5 7)"/><path class="cls-71" d="M97.46,525.3c8.53-8.07,17.88-12.13,29.42-6.25,9.23,4.7,9.06,13.2,9,21.7-3.68,12-11.69,20.88-24.1,19.47-10.62-1.21-16-11-17.06-22q.1-5.1.19-10.2C95.84,527.17,95.92,525.57,97.46,525.3Z" transform="translate(8.5 7)"/><path class="cls-72" d="M71.91,178.11c0,2.62-.08,5.25-.11,7.87-12.93-5.44-25.53-4.16-37.91,1.85a6,6,0,0,1-3-2q1.37-5.06,2.74-10.11C47.57,157.58,60.41,157.23,71.91,178.11Z" transform="translate(8.5 7)"/><path class="cls-73" d="M488.13,553.58,478,563.72c-20.12-7-38.71-16.54-40.3-40.7-1.08-16.4-9.07-21.19-23.49-20.43-9,6.78-16.64,3.76-23.61-3.44a6.19,6.19,0,0,1-.34-4.13,8.21,8.21,0,0,1,8.56-3.87c11.55,2.24,22.09-1.28,32.61-4.88,8.77-1.48,17,8,26.09,1.56a7.16,7.16,0,0,1,3.14-1.13c2.06,7.88,8.88,7.33,14.88,9.18,7.56,2.33,9.8,9.76,9.08,16.56-1,9-4,17.5-14.94,19.67-4.05.8-7.87,2.75-11.79,4.17,3.77,2.6,7.37,5.5,11.35,7.72C475.39,547.44,481.82,550.41,488.13,553.58Z" transform="translate(8.5 7)"/><path class="cls-74" d="M516.8,476c-4.06,15.76,18.2,28.59,4.81,45.79-3.54,4.55-4.28,11.35-11.94,11.14-8.51-.23-9.42-6.65-8.76-12.63C502.74,503.7,475.44,501,483.05,482c6-9.83,13.71-17.3,25.87-18.67C514.85,465.53,519.29,468.6,516.8,476Z" transform="translate(8.5 7)"/><path class="cls-73" d="M508.33,466.75,483.05,482c-4.7-1-11.48-.39-13.64-3.27-3.39-4.52,0-10.09,4-14.37,1.05-1.1.54-3.67.74-5.57-2.76.83-7.51,1.07-8,2.58-2.44,8.26-3.83,16.83-5.57,25.29l-.87.69c-6.31-.23-6.64-5.34-7.81-9.67-2.74-10.06-5-20.3-10.73-29.28-1.78-4.29-5.07-8.16-3.71-13.33,1.88-5.18,5.92-7.21,11.06-7.58,9.54.54,16.09,7.08,23.39,12,8.76,5.94,16.4,13.55,26.48,17.5C501.54,460.49,509.18,459.32,508.33,466.75Z" transform="translate(8.5 7)"/><path class="cls-75" d="M508.33,466.75l-12.55-5.13c1.66-5.91,7.56-6.86,11.59-10,1.41-1.77,2.29-3.8.95-5.8-11.83-17.63-18.71-39-38.09-51-2.61-3-4.94-6-3-10.22,2.8-2.45,5.84-2.35,9-.9a22.49,22.49,0,0,1,6.36,3.73c8.54,7.73,19,13.71,23.44,25.27,2.39,3.73,5.91,6.92,5.95,11.83.41,1.6.9,3.19,1.25,4.82L519,441.11c12,6,17.56,18.06,13.43,30.22-1.24,3.66-3.15,7-1,10.8v.06c2.57,3.39.82,5.65-2.36,6.53-5.08,1.41-5.92-3.2-7.7-6.28L516.8,476Z" transform="translate(8.5 7)"/><path class="cls-76" d="M521.36,482.44c3.45,4,6.94,9.54,10.06-.25l3,5C526.43,495.58,522.52,492.78,521.36,482.44Z" transform="translate(8.5 7)"/><path class="cls-77" d="M467.7,190.94c4.95-8.13,11.69-3.52,17.92-2.52,6.94-1.29,10.28,4.67,14.59,7.92,7.72,5.8,15.26,11.86,23.17,17.43,4.18,5.38,10.17,8.67,15.2,13.06,3.32,2.89,6.31,5.53,5.73,10.37l-15.16,2.33-7.79-7.65c-4.9.26-7.55-3-10.36-6.3A116.72,116.72,0,0,0,496.82,211c-3.53-2.91-8.28-8.65-11.37-6.28-4.53,3.46,2.88,6.22,4.23,9.77,2.55,6.69,1.88,12.29-2.95,17.59-5.69,6.23-12.19,11.86-15.5,20-5.11,6.85-8.22,14.9-13.35,21.72-2.85,3.78-5.82,7.36-10.86,8.31a9.29,9.29,0,0,1-7.16-2.78c-5.6-7.23-2.06-13.56,2.25-19.55,2.45-3.41,5.92-6,9.29-8.52,12.82-9.63,20.91-19.92,11.65-37.24C459.2,206.84,460.21,197.45,467.7,190.94Z" transform="translate(8.5 7)"/><path class="cls-78" d="M511.09,175.46l2.55-4.9c3.23-2,6.41-4,9.72-5.85,9.2-5.11,17.1-16.71,28.94-11.18,12.89,6,5.63,19.53,7.29,29.75a6.38,6.38,0,0,1-6,1.77c-8.48-5.6-18.06-5.51-27.71-5.66C520.77,179.31,514.83,181.23,511.09,175.46Z" transform="translate(8.5 7)"/><path class="cls-79" d="M554.61,183.34l5-.06c7.58,8.14,19.2,15.15,13.44,28.62-5.34,12.48-12.68,24.23-28.72,25.3l-23-20.64a6.8,6.8,0,0,1,4.68-3.34c4.8-.78,8.68,1.77,12.73,3.57a38.1,38.1,0,0,0,9.7,2.93c6,.66,10.81-2.06,14.29-6.75,3.32-4.48.76-8.73-.83-13.21C559.83,194.08,551.52,191.19,554.61,183.34Z" transform="translate(8.5 7)"/><path class="cls-80" d="M585.18,175.87c-1.64,6.32,4.32,16.66-5.32,18-4.34.59-11-8-14.76-13.66-3-4.52-2.13-11.78,3.28-14.44,9.36-4.61,10.75,7,16.64,9.89Z" transform="translate(8.5 7)"/><path class="cls-81" d="M411.55,81.08c12.57-7.09,26-8.9,37.81-.37,5.83,4.23,5.32,14-.14,19.56-9,9.07-16,24.73-32.51,18.6-13.71-5.08-13.44-17.76-10.47-30.09a1.74,1.74,0,0,1,.21-2.49Z" transform="translate(8.5 7)"/><path class="cls-82" d="M329.74,94l-5.16-.13c1.08-17.88,8.65-39-21-41.5-1.35-.12-3.77-3.86-3.51-4.2,2.16-2.75,4.41-6,7.42-7.41,29.68-13.62,52.91,1.81,76.05,17.35-1.5,2.9-4.21,3.57-7.12,3.86-3.52-.09-6.94.77-10.38,1.26a16.86,16.86,0,0,1-6-.68c-14.92-4.72-18.91-2-19.94,13.89C339.59,84.07,340.09,92.19,329.74,94Z" transform="translate(8.5 7)"/><path class="cls-83" d="M467.35,32.29,439.47,45.5A54.07,54.07,0,0,1,423,51.76c-6.92,1.62-13.63,1.57-18.28-4.72-5-6.76-3.69-13.41,1.61-19.53,4.28-8.17,11.27-11.18,20.15-10.62l1.16,1.37c2.32,5.47-7.71,10.66-2.26,14.25,5,3.29,12.11-1.06,17.93-3.29,6.67-2.56,12.7-6.59,19.38-9.2,4.21-1.64,8.52-4.35,12.79,0l-5.07,7.59Z" transform="translate(8.5 7)"/><path class="cls-84" d="M309.15,101.94c-3.79,2.28-5.82.58-7-3.08,4.49-27.39,4.49-27.39-23.86-29.48-.84-.06-1.68-.23-2.52-.33l-7.87-7.67c.57-5,1.63-9.44,8.31-8.24l10.28-2.57c8.53,10.38,26,3.66,32.93,17.57,6.7,13.42-1.73,22.89-7.57,33.17Z" transform="translate(8.5 7)"/><path class="cls-85" d="M406.37,27.51c-2.76,31.36,17.31,20.75,33.11,18l-2.71,4.91L431.94,53c-5,1-10.24,1.26-14.88,3.1-13.95,5.54-26.32-1.18-29.94-11.7C383.11,32.78,399.3,32.88,406.37,27.51Z" transform="translate(8.5 7)"/><path class="cls-86" d="M375.73,58.29l7.83-.2c13.89,4.33,29.61,7.17,22.89,28.21-.05.83-.12,1.66-.21,2.48-9.3,6.55-7,16.39-7.29,25.52l-5.14-7.57c-2.92-1.34-5-4-4.77-6.81,1.17-14.79-6.17-26.37-13.53-38C374.83,60.81,375.28,59.47,375.73,58.29Z" transform="translate(8.5 7)"/><path class="cls-83" d="M452.31,1.64l7.79.42c-4,13.16-20.33,20.83-33.08,15.51l-.5-.68L432,12.48Z" transform="translate(8.5 7)"/><path class="cls-87" d="M319.3,425.57c-9.69,1.4-6.43-10-12.27-12.4-5.26-1.59-7.24-5.74-7.64-10.63-.36-4.36-1.35-8.35-3.89-11.87-4.19-5-10.85-7.11-13.79-14.25-2.72-6.6-7.58-.4-11.4,1.16a20.12,20.12,0,0,1-8.6,3.2c-4.44-1.07-10.43,3.28-13.21-3.71a8.34,8.34,0,0,1,1.71-7.17c2.46-2.74,5.07-5.32,8.5-6.84,3.4-7.55-4.92-12.62-3.65-20.5a169.59,169.59,0,0,1,12.07-40.71c6.8-.76,13.63-1.05,20.44.23a156.44,156.44,0,0,0,29,2.6c10.49,1,14.67-6.66,19.06-14,1.46-4.49,3.09-9.81,9-7.75,4.66,1.61,4.42,6.63,3.16,10.84a8.07,8.07,0,0,0,1.68,8.11c4.54,7.3,7.95,15,14.2,21.57,9.05,9.47,7.74,20.56-1.17,30.28a55.49,55.49,0,0,0-6.38,7.81c-3.4,2.85-5.59,6-2.29,10.29,3,5.09,7.65,9.14,9.87,14.83.53,4.68,1,9.3-3.73,12.37-4.25,1.7-7.75.28-10.85-2.64a36.46,36.46,0,0,1-7.27-8.25c-2.13-3.42-6.29-4.92-8.29-8.48-8.09-5.63-6.39,1.76-7.35,5.69-1.69,10.11-3.58,20.05-3,30.29C323.54,419.39,323.48,423.41,319.3,425.57Z" transform="translate(8.5 7)"/><path class="cls-88" d="M391.23,494.9l-.08,2.45c9.05,16.16,7.61,26.12-5.54,38.23l-1.95,7.76a1.86,1.86,0,0,0-.49,2c-9.48,9.93-28.83,8.41-35-2.74L332,499.91q-1.18-8.91-2.38-17.83c8.79,1.32,13.58-.69,14.45-11.29.73-8.89,9.32-12,16-6.42,4.55,3.78,6.14,4.75,10.33-.48,6.07-7.58,13.4-5.35,20.09.42C395.54,474.46,400.66,484.53,391.23,494.9Z" transform="translate(8.5 7)"/><path class="cls-89" d="M385.76,464.19a13.7,13.7,0,0,0-3.7-.76c-9.61.75-17.17,33.07-29.51,2-.26-.65-4.16,5.67-4.8,9.83-.84,5.53,7,12.68-2.42,16.49-9,3.64-10.23-6.75-15.7-9.66q-4-24.1-7.93-48.21c-1.62-12.36-.65-24.75-.59-37,9.55-2.93,8.38,5.07,8.61,9.59.6,11.46.69,22.92,3,34.22.45,2.24-.29,6.27,2.74,5.9,2.58-.32,1.78-4.37,1.54-6.71-.72-6.76-.42-13.57-1.22-20.32-.72-6.11.52-11.1,7.75-12.23,5.79,4.77,4.44,13.1,9.17,18.47,1,1.15.91-.66.68,1a1.1,1.1,0,0,0-.2-.37c-5.1-6.16-4.56-15.13-10.42-21-1.65-6.84-1.08-12.32,7.67-12.9l6.74,5.78c3.44.52,6.92,1.41,8.75,4.55,9.37,16.15,18.82,32.3,22.59,50.92C389.24,457.53,389.48,461.46,385.76,464.19Z" transform="translate(8.5 7)"/><path class="cls-90" d="M286.43,517.83l-7.83,2.9c-5.37,2.8-11.32,3.33-17.1,3.08-11.86-.52-16.87-10.59-14.47-28,1.31-3.61.53-7.79,2.93-11.13,8.79-9.9,16.31-21,26.79-29.38,3.72-1.29,5.84-4.87,9.34-6.35,6.78-2.88,15.16.2,16.21,7,1.32,8.57,1.78,18.11-2.17,25.64-4.11,7.82-7.45,15.86-10.93,23.89Q287.82,511.69,286.43,517.83Z" transform="translate(8.5 7)"/><path class="cls-91" d="M289.2,505.54c-2.84-12.45,9.08-20.14,10.23-31,2-18.78-2.53-29.59-23-15.18a7,7,0,0,1-3.37-5.2c.69-10.13,4.35-19.57,7.69-28.93s8-18.21,9.06-28.49c.47-4.72,2.83-9.9,9.57-9.4L307,413.17C308.21,445.33,310.94,477.8,289.2,505.54Z" transform="translate(8.5 7)"/><path class="cls-92" d="M324.64,395.36l-2.94,38.51-2.4-8.3q1.43-22.8,2.86-45.61c4.67-2.39,9-6.88,14.78-2.31l7.54,7.56C341.24,400.75,335.78,403.54,324.64,395.36Z" transform="translate(8.5 7)"/><path class="cls-51" d="M59.14,405.37l-7.65-12.71c8-28-8.65-50-17.83-73.82L49.91,327c2.2-6.23,6.21-12.45,6.28-18.7.25-24.28,13.27-41.84,28.44-58.58a2.84,2.84,0,0,1,3.66,0c5.83,8.37,3,16-4.08,20.94-13.06,9-17.09,21.25-16.13,36C69,320.28,70,333.78,83.3,342.27c3.58,2.28,5.49,6.34,6.44,10.62.8,6.25-4.19,9.26-7.4,13.22-5.78,3.22-11.13,7-14.68,12.81-5.58,7.39,1.21,15.34-1,22.95C64.88,404.61,62.9,406.94,59.14,405.37Z" transform="translate(8.5 7)"/><path class="cls-93" d="M31.2,313.66l-2.8-2.89c-1.36-3.41-1.8-7.84-4.25-10-8.66-7.82-11.15-15.56-2.53-24.91,5.43-5.89,10.14-6.15,17.55-1.75,16.79,10,17.28,23.6,10.44,38.8C44.87,323.39,37.45,314.64,31.2,313.66Z" transform="translate(8.5 7)"/><path class="cls-94" d="M87.12,249.79c-.83,0-1.66-.06-2.49-.1C81,236.14,73.48,231.68,59.24,236c-16.21,4.86-31-.46-39.21-15.22-7.71-13.85-1.51-26,10.83-34.94l2.72.08c2.88,4.39-.69,7.94-1.52,11.85-4.8,15.36-2.78,20.9,10.1,27.58,7.31,1.22,13.89.73,20.82-3.13,10-5.54,18.2-2.62,23.2,7.76,3,6.25,6.27,12.75,6.47,20.07A4.37,4.37,0,0,1,87.12,249.79Z" transform="translate(8.5 7)"/><path class="cls-95" d="M348.14,542.57c11.3,5.74,23.1,5,35,2.74-2.59,11.48-11.52,13.59-21.09,13.08C352.8,557.9,347.68,552.35,348.14,542.57Z" transform="translate(8.5 7)"/><path class="cls-76" d="M531.42,482.13c-3-14-2.94-29-12.45-41,11.36-4.33,20.77-4.07,27.82,8.23,7.81,13.64.65,19.5-10.26,25C534.13,475.57,533.09,479.47,531.42,482.13Z" transform="translate(8.5 7)"/><path class="cls-96" d="M513.24,429.35l-2.19-3.46c-3.13-10.27-.5-18.32,9-23.7,7.63-1.25,11.28-10.51,19.85-10.13,7.59,1,13,5.83,18.45,10.55,3.28,3.19,6.28,7,11.78,5.37l2.37,7.74c-5.11,7.17-11.93,6.23-17.81,2.26C536.14,405.44,523.78,413.63,513.24,429.35Z" transform="translate(8.5 7)"/><path class="cls-3" d="M97.46,525.3,94.94,528c-1.82-8.74-9.4-8.63-15.79-10C50,511.75,36.37,491.7,31,464.22c.2-10.31,8.13-11.6,15.55-12.67,11.08-1.6,21.66.73,31.82,5.42a78.45,78.45,0,0,0,14.3,4.55c8.59,4.66,16.18,7.31,19.65-6.24,1.15-4.52,5.69-7.45,11.25-4.56,3.25,3.79,2.33,8.08,1,12.08-4.64,13.48-10.43,26.79-3.63,41.24l9.22,6.94c-3.87-.18-7.75-.58-11.62-.52C108.18,510.64,99.34,513.1,97.46,525.3Z" transform="translate(8.5 7)"/><path class="cls-97" d="M94.94,466.8C73.62,466,53.12,445,31,464.22c-6.36.77-14.7,6.51-18.42-1.36-4.83-10.23,1-20.67,5.63-30,3.14-6.3,8.45-11.52,12.79-17.22,5.91-1.2,12.28-4,15.24,4.59,1.24,5.26,1.09,11.13,10,8.45,16.51-5,16.88-4.41,24.45,11.93,2.23,4.28,4.92,7.23,9.84,3.44,5.09-3.9,10.12-4.32,14.63.58,4.13,4.47,4.44,10,2.28,15.4S101.61,469.2,94.94,466.8Z" transform="translate(8.5 7)"/><path class="cls-98" d="M36.19,520.29c15.13-5.12,24.45,5.15,34.38,13.41.14.12-2.84,6-5.21,6.84-16.58,6.1-34.66,24.17-50.43,4.22-9.79-12.39,14-9.59,16-19.28Z" transform="translate(8.5 7)"/><path class="cls-99" d="M123,35.23c13.46,14.56,3.56,31.46,3.62,47.05,0,6.65-7.72,1.93-9.85-1.76C109,67,101.78,53.19,94.67,39.31c-.91-1.79-.64-6.08.51-6.75,9.69-5.63,18.71-.71,27.78,2.59Z" transform="translate(8.5 7)"/><path class="cls-100" d="M248.23,494.66c-1.73,22.49,13.74,25,30.37,26.07-2.75,17.33-37,26.87-61.36,17.09l28.7-45C248.07,491.73,248.8,492.37,248.23,494.66Z" transform="translate(8.5 7)"/><path class="cls-101" d="M385.61,535.58q2.77-19.11,5.54-38.23l23.05,5.24c13.36,7.15,14.51,20.84,10.66,31.47-4.82,13.27-16.65,1.68-25.37,1.89C394.87,536.07,390.24,535.72,385.61,535.58Z" transform="translate(8.5 7)"/><path class="cls-102" d="M524,254.81c3.78,13.23,4.41,27,10.89,39.95C540,305,531.33,312.64,521,316.2c-2.84,1.92-6.14,1.24-9.25,1.71-9.26-2.35-18.92-3.93-25-12.59-2-6.86-1.72-13.7,3.29-19,9.31-9.87,17.84-20.12,22.74-33a8.2,8.2,0,0,1,5.76-4.61C522.66,248.64,523.73,251.36,524,254.81Z" transform="translate(8.5 7)"/><path class="cls-103" d="M524,254.81l-5.06-5.05a8,8,0,0,1-4.34-2.48c-13.78-14.54-13.69-14.4-31.16-3.2-4.68,3-8.68,8.91-15.74,5.55,4.63-5.87,9.16-11.81,13.9-17.59,5.54-6.76,10-13.06-.55-19.63-5.71-3.54-7.92-9.77-3.78-15.3,4.39-5.87,9-.54,13,2.06a97.18,97.18,0,0,1,31.11,32.71C523.1,239.42,532.21,246.13,524,254.81Z" transform="translate(8.5 7)"/><path class="cls-104" d="M562.12,385c-3.42,1.16-9.14-2.25-9.6,4.81-4.29,2.77-7.38-.14-9.81-2.75A133.68,133.68,0,0,0,509,361.26a14.28,14.28,0,0,1-7.56-9.62c.74-10.65,8.73-7.73,15-8.05,3.52.64,6.34,2.21,7.54,5.85L539,355l17.82,10C570.59,369.18,572.08,374.74,562.12,385Z" transform="translate(8.5 7)"/><path class="cls-105" d="M513.7,313.94,521,316.2c5.26,6.7,17.63,7.34,17.38,18.23-.14,6.54-6.1.82-9.11,2.09a13.27,13.27,0,0,1-3.42,2.11c-7.85-.16-16,1.24-22.64-4.82a7.21,7.21,0,0,1-1.15-3.65C503.41,323,510.39,319.79,513.7,313.94Z" transform="translate(8.5 7)"/><path class="cls-106" d="M527.32,336.11a2,2,0,0,1,1.9.41c-.73,4.73,1.56,10.68-5.26,12.91L516,347.14c-2.88-.09-3.9-2.1-4.58-4.45C512.73,330.85,521.1,336.07,527.32,336.11Z" transform="translate(8.5 7)"/><path class="cls-107" d="M503.61,351.74c18.59,9.76,35.49,21.68,48.91,38.07l11.63,13.66c-.87,5.59-4.21,3.34-7.18,2.26l-17.74-11.16c-13,.21-21.27-9.26-31.07-15.37-6.08-3.79-12-7.78-18.66-10.37A80.31,80.31,0,0,1,478.4,363c-3-2.12-5.79-4.35-6.73-8.11,3.3-5.27-4.47-15.71,7.89-16.86C488.63,340.82,498.45,342.21,503.61,351.74Z" transform="translate(8.5 7)"/><path class="cls-108" d="M562.12,385c5.78-8.68,1.58-14.7-5.35-20,4.92-6.8,10.83-10.45,19.29-6.11,5.27,2.7,9.57,7.07,8.15,12.82C581.48,382.84,570.84,382.74,562.12,385Z" transform="translate(8.5 7)"/><path class="cls-109" d="M557,405.73l7.18-2.26,6,4.51C563.14,422.6,561.11,408,557,405.73Z" transform="translate(8.5 7)"/><path class="cls-110" d="M74.59,440.94c-.94-14.35-7.13-13.79-17.21-6.9-3.93,2.69-13.59,4.43-14.31,3.12-3-5.54-2.18-12.05,3.16-16.9l12.91-14.89,5-5.3c2.4-1.86,1.77-5.18,3.54-7.36,2.34-2.47,5.2-4.41,7.22-7.22,8.43-8.78,17.57-16.45,29.64-19.7,4.84.6,10.44-1.25,14,3.82,2.61,3.71,4.12.51,5.93-.74a68.79,68.79,0,0,1,23-10.4c3.25-.8,7.08-1.52,9.23,1.93,2.51,4,.2,7.83-2.86,10-7.49,5.25-12,12.91-17.48,19.78-3.88,4.82-6.16,8.31,2.41,10.08,4.18.87,8.11,2.8,8.46,8.11-4.56,12-15.45,16.48-25.74,21.68-10.64,6-22.16,10.16-32.71,16.22C81.33,450.49,76.87,449.17,74.59,440.94Z" transform="translate(8.5 7)"/><path class="cls-111" d="M225.15,35.18l-10.26-2.93c-2.08-3.66-3.95-7.6-8.68-8.46-4.1-.74-9.49-2.34-11.22,2.35-1.61,4.36,4.51,3.59,6.82,5.6,1.28,1.11,2.62,2.08,3.16,3.77l-12.88,2.72c-9.78-.13-20-.53-24.18-11.27-3.13-8,2.79-13.07,8.69-17.42C197,1.29,215.21,1,232,19c10.84,11.64,19.31-3.14,28.72-6.59l.33.11c4.14,14.71-.81,23.24-17.72,30.58-7-.34-13.94-1-18.45-7.57Z" transform="translate(8.5 7)"/><path class="cls-112" d="M243.06,40.36c10-6.71,15.65-16.19,18-27.83l20.29,25.18-5.1,15.43-8.31,8.24c-10.5,1.21-9.24-11.58-16.67-14C247.49,46.23,241.83,47.33,243.06,40.36Z" transform="translate(8.5 7)"/><path class="cls-113" d="M505.36,594.45c-8.13-1.17-14.65-5.16-13.92-13.47.82-9.28,6.11-17.11,16.93-16.82,9.24.24,14.92,6.1,15.2,15.34C524,591.89,513.6,592.11,505.36,594.45Z" transform="translate(8.5 7)"/><path class="cls-114" d="M427,17.57,460.1,2.06c8,1.53,18.67-5,23.67,5.55,2.87,6.06-4.16,9-8.25,12.37-11.8,5.44-23.27,11.87-35.53,16-7.58,2.53-17.95,10-24.12,0S424.38,24.56,427,17.57Z" transform="translate(8.5 7)"/><path class="cls-115" d="M467.7,190.94c4.59,28.51,5.8,55.83-22.84,74.35-3.53,2.29-6.22,7.29-2.46,12.31a5.5,5.5,0,0,1-3.34,2.11c-7.09-2.94-16.77-1.84-19.07-12.23,2-7.81,2.77-15.2.27-23.55-2.88-9.58-.3-19.36,6.59-27.37,1.71-7.24,4.34-14.41,4.89-21.74.6-7.84,4-12.41,10.88-15.35C455.31,174.07,460.73,184.09,467.7,190.94Z" transform="translate(8.5 7)"/><path class="cls-116" d="M426.85,216.56c-5.84,16.67,6.2,35.2-5.36,51.26a4.1,4.1,0,0,1-4.94.51,25.15,25.15,0,0,0-13.32-16.75c-5.94-3.08-10.66-8-15-13.2a10.24,10.24,0,0,1-1.67-7c2.83-6.33,2.72-13.3,3.19-19.91.92-12.93-8.92-21.15-22.14-19.51-4.18.52-8.29,2.16-12.51,0-4.35-4.17-6.51-8.65-2.22-14.11l40.78-7.36c9.54,11.9.48,30.88,16.1,40.9C415.38,215,419.93,218.79,426.85,216.56Z" transform="translate(8.5 7)"/><path class="cls-117" d="M554.61,183.34c5.68,10.26,21.75,17.83,11.43,32.43-6.83,9.67-17.79,12.64-29.3,5.84,2.77-4.84,8.26-3.65,12.36-5.54,10.45-4.82,12.55-12.35,5-21.13-5-5.86-11.38-10.19-19.64-10.31-6.78-.09-13.58-.18-20.36.06-4.12.14-9-.64-10.27,5.08-1.14,5.33,3.13,7.29,6.67,9.62,4.24,2.81,8.65,5.35,12.64,8.54,2.79,2.23,5.22,4.46,3.37,8.47l-5.26.16-35.66-28.14c1.56-17.93,15.69-11.18,25.47-12.95C525.57,178.25,542.16,169.36,554.61,183.34Z" transform="translate(8.5 7)"/><path class="cls-118" d="M375.73,58.29c17.65,11.82,19,29.7,18.08,48.44-.07,8.5-5.74,12.16-12.49,9.87-17.79-6-39.56-3.43-51.58-22.62,1.74-6.3,5.32-12.72,4.89-18.86-1.52-22.07,9.88-22.56,25.85-17,.51,6.69-6.06,9.66-7.93,15.34-4.67,14.21.71,21.49,15.37,20.11,7.84-.74,8.8-4.1,6.26-11-3-8-10.14-14.66-8.57-24.28Z" transform="translate(8.5 7)"/><path class="cls-119" d="M328.74,135.09Q321,123.53,313.34,112c17.42-1,33.82,2.37,50.21,8.63,14.67,5.6,25.81,9.92,7.17,24.31C357.09,140.07,340.16,149.37,328.74,135.09Z" transform="translate(8.5 7)"/><path class="cls-120" d="M352.93,177.85q2.29,6.71,4.58,13.41c7.92,5.15,8.92,11.82,4.35,19.71-5.22,3.24-9.15.47-11.4-3.68-4.42-8.14-10.51-16.21-5.79-26.47l-.9-4.71,7.49,2.07A15.9,15.9,0,0,1,352.93,177.85Z" transform="translate(8.5 7)"/><path class="cls-121" d="M344.67,180.82c3.48,11.1,5.71,22.83,15.49,30.75,11,4.49,24.14,6.11,28,20.39l3.07,4.81c3.21,9.92-5.27,8.32-10.08,10.29-6.21,2.09-12.26,0-18.42-.81-4.83-.62-10.33-1.91-12.09,5.14a11.21,11.21,0,0,1-2.29,2.84c-3.12,2.06-7,2.06-10.23,3.74-9,2.7-12.51-7.82-20.24-8.25-8-2.15-16.06-3.22-24.32-1.36C264.1,252,234.24,250.64,205,256c-10.46,5.28-21.29,7-32.61,2.65-4.95-1.17-9.27-3.09-10.26-8.83.92-2.2,1.16-4-2.18-3.85a12.21,12.21,0,0,1-6.32-13.87c1.17-5.58-.16-10.74-.6-16.09-1.4-3.27-2.71-6.54-1.46-10.17,3.14-3.45,5-7.39,4.37-12.19l3.32-9.87c.16-8.9,6.28-15.62,8.66-23.7-2.26-11.68,25.13,9.3,13.73-12.46l12.77-.08c2.13-4.59,7-2.28,10.28-4.13,13.67-9,27.6-15.69,44.78-9.89,5.14,1.74,11.94,1,14.18,6.64,2.55,6.42-4.52,9.17-7.66,13.38-3.88,3.74-.6,5.85,1.91,8,6.05,5.18,13.09,9,19.26,14a8.84,8.84,0,0,0,2.84,2c-.73-1-1.42-2.08-2.09-3.14-5-7.9-15.42-12.17-15.7-23.28a5.15,5.15,0,0,1,2.17-2.69c5-2,10.33,2.25,15.26-1,7.87-2.61,13.06,2.73,18.87,6.28,5.85,5.82,14.16,10.41,10.81,20.93-6,8.39-1.42,26.35,7.66,29.91.89.35,1.81.84,2.25.07.67-1.2-.26-2.33-.78-3.43-1.84-3.88-5-6.85-7.36-10.33-2.88-4.18-6.1-8.5-1.86-13.77,13.19-.45,23.8,7.74,26.92,20.72,2.08,6.45-.46,14.08,4.85,19.78,3.66-7.56-5.26-12-4.69-18.8.41-4.24-1.65-8.66,1.07-12.68Z" transform="translate(8.5 7)"/><path class="cls-122" d="M332.88,198.64c-3.89-12.52-16.73-14.27-25.38-21.06l-.2-.29c.95-10-6.31-14.59-12.89-19.63A83.6,83.6,0,0,0,287,146.59c-3.16-4-1.84-8.55,1.75-12.2,31.35,3,35.3,31.81,48.69,51.71q.91,6.38,1.81,12.73C337.07,200.3,335,200,332.88,198.64Z" transform="translate(8.5 7)"/><path class="cls-123" d="M288.73,134.39l5.67,23.27c-4.34-4.16-8.09-10.19-15.46-5-4.53.05-7.92-5.83-13.08-2.52l-1.19,0-1.19-.08c-3.41,3.49-6.83,3.13-10.26,0,6.19-5.32,13.57-14.44-2-10.56-9.4,2.34-11.28-9.06-19.31-4.15-8.48,5.19-18.29,8.22-27.52,12.2-3.07-3.44-7.62-4.93-10.81-8.21.22-1.5.45-3,.67-4.5,9.15-9.35,21.55-1,31.73-5.87,5.69-2.72,7-6.72,6.82-12.12,9.57,1.5,16.54,8.64,25.4,11.71,5.82,2,11.39,5.91,17.63,1.22C278.28,136.65,284.06,133.93,288.73,134.39Z" transform="translate(8.5 7)"/><path class="cls-124" d="M275.79,69.05c10.77-6.49,22.78-11.13,31.91.36,8.06,10.14,6.71,21.57-5.53,29.45-12.66-1.1-18.36-9.11-20.49-20.65-4.42-.41-4.43-4.2-5.51-7.16C276,70.39,275.89,69.72,275.79,69.05Z" transform="translate(8.5 7)"/><path class="cls-125" d="M275.82,129.87q-1.77,4.74-3.53,9.48C260.18,133.7,248,128.17,236,122.26c-1.57-.78-2.18-3.5-3.24-5.32C253.3,100.73,263.35,119.31,275.82,129.87Z" transform="translate(8.5 7)"/><path class="cls-126" d="M229.77,53.21c15.35,1.7,25.31,8,32.2,19.24-1.56.89-3.59,2.93-4.59,2.51-11.92-5-23.69-10.33-35.5-15.59Z" transform="translate(8.5 7)"/><path class="cls-127" d="M222.14,78.89c-3.19-2.2-10.46-5-5.71-8.48,8.72-6.31,18.52-.52,27.58,2.78,4.18,1.52,8.46,3.23,7,8.72-1.8,6.53-6.3,3.72-10.22,2.23C233.54,85.93,226.78,86.19,222.14,78.89Z" transform="translate(8.5 7)"/><path class="cls-128" d="M222.14,78.89l18.6,5.25-.06,4c-2.61,5.54-9.54,4.42-13.11,8.5L206.68,88.7Z" transform="translate(8.5 7)"/><path class="cls-129" d="M272,84.19c-1.46,4.48-.58,11.25-8,10.49-2.74-.29-6.86-3.19-7.44-5.59-2.39-10,8.77-6.23,12-10.85C271.3,79.35,272.74,81.15,272,84.19Z" transform="translate(8.5 7)"/><path class="cls-130" d="M243.06,40.36l8.19,7c-5.07,4.53-10.42,2.83-15.78.69-3.73-3.48-10.09-2.53-12.86-7.63q1.14-2.45,2.26-4.88Z" transform="translate(8.5 7)"/><path class="cls-131" d="M227.57,96.62c-3-14.22,5.57-10.57,13.11-8.5l1.08,8.77Z" transform="translate(8.5 7)"/><path class="cls-132" d="M285.79,116.54c-3,1.81-5.07,3.78-5.85,3.36-4.32-2.26-8.33-5.1-12.44-7.74,1.4-1.5,3.57-4.52,4.09-4.26C276,110.12,280.08,112.94,285.79,116.54Z" transform="translate(8.5 7)"/><path class="cls-133" d="M223.42,103c-5.56,1.6-8.51,3.49-10.53,2.77-2.48-.88-4.19-3.94-6.24-6.06,2-.86,4.21-2.75,5.93-2.37C215.47,98,218,100,223.42,103Z" transform="translate(8.5 7)"/><path class="cls-134" d="M272,84.19q-1.71-3-3.4-6l7.54-7.19q2.74,3.58,5.51,7.16Z" transform="translate(8.5 7)"/><path class="cls-135" d="M222.61,40.42c6.17-.63,10.44,1.95,12.86,7.63C230.34,46.92,220.92,53,222.61,40.42Z" transform="translate(8.5 7)"/><path class="cls-136" d="M297.89,115.3c-3.21,1.09-5.31,2.49-6.14,2a20.68,20.68,0,0,1-5.61-5.84c-.24-.37,2.2-2.53,3.4-3.86Z" transform="translate(8.5 7)"/><path class="cls-137" d="M304.18,106.34c4.32,6.45,5.91,8.84,7.51,11.22-1.4.76-3.73,2.44-4.05,2.12a22.34,22.34,0,0,1-4.82-6.6C302.28,111.83,303.39,109.86,304.18,106.34Z" transform="translate(8.5 7)"/><path class="cls-138" d="M102.56,257.34c24.37,6.6,21.41-11.51,23-25.48,2.72-1.45,4.82-.19,6.8,1.53,1.35,1.64,2.79,3.72,2.56,5.64-2.11,16.94,2.61,32.68,8.14,48.29.23,4.3-3.63,6.78-4.52,10.45,1.84,1.49,3.87,1.69,5.93,1.88,3,.26,5.93,1,6.85,4.19,1.07,3.77-1.2,6.35-4.29,7.9-2.66,1.33-4.58,3.4-6.68,5.34-13.34,9.07-26.5,18.36-38.45,29.24-2.88,2.63-5.82,5.1-10.15,3.36-3-9.77-.36-21-7.39-29.81,5.11-16.07,9.75-32.17,6.49-49.36.22-6,2.09-11,7.72-13.88A4.17,4.17,0,0,1,102.56,257.34Z" transform="translate(8.5 7)"/><path class="cls-139" d="M84.63,211.35c3.62-10.27,8.71-23.12,21-18.48,13.26,5,12.17,20,9.31,32.2-2.66,11.33-8.6,19.7-22.56,14.45C83,230.78,80.43,221.42,84.63,211.35Z" transform="translate(8.5 7)"/><path class="cls-140" d="M84.63,211.35l7.74,28.17c4.18,5.49,11.12,9.41,10.19,17.82l-2.68.08c-5.83.64-8.86-1.46-7.63-7.77-6.78-36-34.43-16.91-53.57-20.33,1.85-4.53,6.53-2.95,9.69-4.57,5.05-2.58,11.76-3.41,13.22-10.46,1.7-8.23,4.57-17.23-3.61-23.36-7.69-5.75-15-2.09-21.56,3.51-2.25,1.93-4.71,3.76-7.89,1.62l5-10.18c12.76-9,25.51-12.81,38.22.1-1.22,9.81,2.87,14.19,12.84,12.55Z" transform="translate(8.5 7)"/><path class="cls-141" d="M130.6,234.53l-5-2.67c-3-14.69-3.3-29.24,2.4-43.45,7.54-8.82,14.18-5,19.54,2.15,2.58,3.44,3.16,8.46,8.43,3.09,5.68,5.14,8.08,9.87-1.65,13.06-4.66,5.4-14-3.42-17.33,5.61-2.22,6.11,0,12.31.46,18.47a5.46,5.46,0,0,1-1.86,4.44A4.33,4.33,0,0,1,130.6,234.53Z" transform="translate(8.5 7)"/><path class="cls-142" d="M168,160.08c6.81,11.44-1.62,17.31-8.66,23.7-10.33-2.63-8.87-9.5-4.24-15.35C158.05,164.66,157.12,152.37,168,160.08Z" transform="translate(8.5 7)"/><path class="cls-143" d="M205,35.51c-6.67-2-16.5,4-19.44-6.42-.74-2.61,3.84-8.79,7.23-10.13a25.77,25.77,0,0,1,27.31,4.78c5.53,5.05-3,5.8-5.18,8.51Z" transform="translate(8.5 7)"/><path class="cls-62" d="M193.57,139.43c7.2-2,11.34,0,10.81,8.21l-9.93-.1C200.49,144.15,183.91,143.21,193.57,139.43Z" transform="translate(8.5 7)"/><path class="cls-144" d="M261.18,377.88l6.88-3.67c6.63-1.32,10,2.53,12.53,7.8,1.23,11.7-7.47,19.43-12,28.71-7.76,15.93-13.48,33-24.27,47.3-3.44,4.55-8.43,13.72-14,1.07a34.4,34.4,0,0,1,1.19-4.88c4.1-10.2,8.3-20.36,12.46-30.54l-18.87,30.27c-4.36.57-8.71.17-12.91,2.73s-9.23,3.82-13.8-.12c-2.47-3.64-.85-7.12.34-10.62,10.86-16.67,23.85-31.77,35.64-47.77C241.52,389.06,249.73,381.33,261.18,377.88Z" transform="translate(8.5 7)"/><path class="cls-145" d="M230.3,459.09c13.36,4.64,12.93-9.14,16.06-14.34,12.06-20,21.76-41.42,32.34-62.32,4.09-6.08,4.55-6.29,6.18-2.73,2.78,6.09,5.62,12.32,2.93,19.38-4.06,10.63-6.06,22-10.84,32.29-4.76,6.63-7.78,13.78-7.87,22.28-.15,13.19-12,21.09-15.63,32.78l-5.24,8.23-2.29-1.82c.91-5.33,1.41-10.78,2.83-16,1.38-5,3.71-9.76,5.63-14.62-5.29,2-10.44,4.82-15.9,5.72-5,.83-4.12,12.67-10.76,6.28C225.66,472.25,229.29,464.31,230.3,459.09Z" transform="translate(8.5 7)"/><path class="cls-146" d="M202.68,446.55,199,456.34c4.09,8.39-3,12.61-6.76,18l-5,15.43c-8.24-3.76-25.6,26-25.89-7,2.1-15.15,14.76-23.22,23-34.31,3.32-1.87,5.83-5.07,9.81-5.8C197.26,443.21,202.37,439.56,202.68,446.55Z" transform="translate(8.5 7)"/><path class="cls-147" d="M192.2,474.38q3.38-9,6.76-18c7.58-2,15.25-3.6,19.17-11.87,1.16-2.43,4.35-7.28,5.88.22.62,3,.73,6.16,1.07,9.25C220.37,470.8,204.42,469.6,192.2,474.38Z" transform="translate(8.5 7)"/><path class="cls-148" d="M186.92,451.57l-25.65,31.22C146.75,487.85,138.05,504,120.89,504c-23.72-18.55.81-35,2.27-52.51a10.51,10.51,0,0,1,.06-5.62c2.4-4,5.28-7.16,10.53-6.37,3.92,3.66,6.51.25,9.81-1.54,9.79-5.32,16.13-3.17,19.31,7.16.93,3,.56,2.77,2.85,1.43,3.68-2.17,8.09-2.77,12.12-3.41C183.29,442.33,189.79,442.46,186.92,451.57Z" transform="translate(8.5 7)"/><path class="cls-149" d="M385.76,464.19c-4.9-24-16.36-45.09-28.62-65.88q1.71-6.15,3.41-12.3c.36-.49.73-1,1.09-1.48,11.21,1.66,12.52,12.3,17.68,19.45,9.05,14.77,18.35,29.39,26.63,44.62,5.57,10.26,14.85,17.22,22.2,25.88,3.71,4.37,9.14,8.09,6.72,15.21-13.74,8.49-28.38,9.41-43.64,5.21Q388.5,479.56,385.76,464.19Z" transform="translate(8.5 7)"/><path class="cls-150" d="M434.87,489.69c-25.34-24.28-42.34-54.36-58.95-84.71-2.68-5.26.5-5.58,4.23-4.64,3.46.86,4.71,4.25,6.44,6.92,7.36,13.12,16.73,25,25.31,37.31,8.43,12.12,16.12,11.95,27.12,1.94,1.75-1.59,3.62-1.94,5.51-.15,11.19,11.4,10.41,27.26,15.25,41l-2.46,9.89C449.7,495.18,440.71,497.09,434.87,489.69Z" transform="translate(8.5 7)"/><path class="cls-151" d="M467.72,385.09l5.39,7.38c-.32,6.26,5.26,8.14,8.56,11.8,4.84,5.39,12.78,10.16,5.25,19.19-2.82,3.38.63,5.36,2.51,7.41,4.64,5,10.82,8.24,15.78,12.9,3.62,3.41,8.41,6.37,5.86,12.67l-15.29,5.18-45.17-30.9c-11.53-1.7-17.19-11.23-24.67-18.39-3.63-3.49-8-6.17-11.7-9.58-4.1-6.56-12.39-9.93-14-18.37,9.72-6,20.35-2.76,30.64-2.86,1.57,0,2.89,1.75,4.7.93-1.3-1.08-2.67-2.09-3.89-3.26-2.56-2.44-4.86-5.34-2.9-8.9,2.2-4,6.11-4.29,10-2.59,4.7,2.08,9.43,3.74,14.71,3.38C460.45,373.51,467,376.36,467.72,385.09Z" transform="translate(8.5 7)"/><path class="cls-152" d="M444.53,446.36c-10.47,27-25.13,14.39-36.33,2.11-10-11-16.51-25.28-24.56-38.11,5.73-13.18,9.95-13.83,20.09-3.09a25,25,0,0,1,4,4.87c4.08,7.46,8.63,10,14.64,1.8,11.82,2.84,16.25,11.31,17.22,22.43Q442.06,441.37,444.53,446.36Z" transform="translate(8.5 7)"/><path class="cls-153" d="M439.6,436.37,421.4,415.7c-6.1-1.71-10.49-4.8-9.7-12.06,1.09-2.93,2.64-5.11,6.3-3.82l32.61,30.9Z" transform="translate(8.5 7)"/><path class="cls-154" d="M511.07,456.44c-11.89-11.27-23.84-22.46-35.57-33.88-1.33-1.29-2.47-5.18-1.9-5.65,6-4.91,5.92-4.65-.44-15.55-1.3-2.22-.1-5.89-.06-8.89,19.95,12.28,29.25,32.88,40.16,52.07C515.19,447.92,519.89,454,511.07,456.44Z" transform="translate(8.5 7)"/><path class="cls-155" d="M480.32,359.82l10.7,4.29c5,6.06,13.72,8.84,15.39,17.92,1,5.15,1.8,10.06-1.92,14.5-5.22,4-10.16,2.89-14.85-.94-2.93-2.39-5.68-5.06-9.81-5.08l-4.56-3c2.25-8.87-5.55-10.39-10.28-14.28-4.95-4.07-14.06-5.91-9.25-15.82C464.6,351.82,472.16,358.85,480.32,359.82Z" transform="translate(8.5 7)"/><path class="cls-156" d="M454.83,359.63c7.12,4.93,14.44,9.59,21.29,14.86,5.69,4.37,6.78,9.18-.85,13l-7.55-2.44-15.36-10.22c-7.85-6.31-19.17-5.19-26.62-12.42-1.61-3.2-3.31-6.4-2-10.21a7.09,7.09,0,0,1,4.66-3C438,350.69,448.21,350.57,454.83,359.63Z" transform="translate(8.5 7)"/><path class="cls-157" d="M479.83,390.51l23.66,4.23c5.31-3,9-1,11.76,3.79-2.15,13.16-4.37,16.38-11.91,17.26Q491.58,403.16,479.83,390.51Z" transform="translate(8.5 7)"/><path class="cls-158" d="M503.34,415.79q5.4-7.82,10.79-15.65c5.84-3.34,9.3-1.95,9.94,5-9.82,3.48-10.25,12.84-13,20.74Z" transform="translate(8.5 7)"/><path class="cls-159" d="M467.66,249.63c17.1-7.14,34.27-43.79,51.24.13-2.77,22.47-25,33.65-31.38,54-4.26,5.78-10.29,4.9-16.23,4.3a66.41,66.41,0,0,0-12.37-3.84c-8.24-5.81-17.17-11.3-11.77-23.85Q457.41,265,467.66,249.63Z" transform="translate(8.5 7)"/><path class="cls-160" d="M447.15,280.4c1.28,8.69,5.28,15.56,13.22,19.81-11.21,8.52-18.2-1-26.22-6-.65-7.3-7.37-7.27-12.08-9.78a4.34,4.34,0,0,1-.86-3.56c5.06-8.13,12.25-2.09,18.42-2.83l2.77-.41Z" transform="translate(8.5 7)"/><path class="cls-161" d="M526.54,216.4c-1.12-1.26-2.15-2.61-3.37-3.77-8.74-8.39-28.87-11.19-24.65-25.1,4.3-14.16,22.45-5.57,34.39-6.48,15.72-1.19,27.33,8.74,29.69,22.66,3.32,19.54-13.76,16.69-25.86,17.9Z" transform="translate(8.5 7)"/><path class="cls-162" d="M365.61,58.32c9.71,9.91,15.73,21.75,16.43,35.57.08,1.53-7.35,4.87-11.31,4.88-9.21,0-21.72,3.77-24.75-9.12S345.64,64,360.49,58.16Z" transform="translate(8.5 7)"/><path class="cls-163" d="M252.82,372.08l-2.42,4.84c-.85,2.31-1.46,4.78-4,5.95-8.11.3-12.59,6.21-17.49,11.44-13.92,14.9-27.61,30-43.79,42.59-2.35,1.82-4.62,3.76-7.41,4.91s-5.85,1.93-8.47-.18-2.7-5.47-1.29-8.18c3.4-6.51,7-12.4-5.54-11.25-2.91.27-4.84-3.09-5.49-6.28-.13-6.53,4.57-9.86,8.82-13.48,7.64-5.65,15.23-11.41,23.71-15.85,2.56-1.64,4.44-4.27,7.51-5.19,8.78-3.44,15.67-11.32,26.05-11a25.8,25.8,0,0,0,16.74-2.8C244.56,365.17,251,363.33,252.82,372.08Z" transform="translate(8.5 7)"/><path class="cls-164" d="M337.44,254.73l9.37-2.59c9.07,9.16,19.29,17.35,25,29.39.2,5.51,1.59,11.07-.81,16.41-1.11,6.87,1,12.3,4.6,18.61,9.17,16.24,11.77,26.72-.82,40.7-7.36.74-13.93,9.13-22,2.18,10.39-9.81,16.74-20.4,6.62-34.21-.42-.57-.17-1.63-.23-2.46-22.35,9.17-1-19-14.65-17.18-4.06-6.89,1-12.61,3.89-17.3,4.31-7,2.88-11.2-2.38-16.19-4.2-4-9-7.8-10-14.15A5.11,5.11,0,0,1,337.44,254.73Z" transform="translate(8.5 7)"/><path class="cls-165" d="M268.56,303.27c-2.53,14.88-4.49,29.88-7.83,44.56-1.53,6.74,21.55,13,.13,19.32-3.74-3.77-9.32-2.68-13.6-5.11a8,8,0,0,1-3.32-3.79c-.66-8.18-11.13-9.13-12.49-16.83,2.49-9.91,5.29-19.73,8.1-29.57,1.43-4.43,5.55-6.31,8.57-9.23a80.79,80.79,0,0,0,9.68-7.8c2.61-2.49,6.29-2.42,9.28-.07S271.56,299.83,268.56,303.27Z" transform="translate(8.5 7)"/><path class="cls-166" d="M271.1,431c4.2-13.95,8.57-27.86,12.24-41.94.31-1.16,4.89-10.23-4.64-6.65l-10.64-8.22c4.92-2.74,9.95-7.9,14.74-7.69,7.89.33,3.37,7.32,3.5,11.89.22,8.54,16.94-6.24,13.05,8.93Q287.77,420.67,276.2,454c-5.64,3.06-8.24,1.61-9.12-5S270.1,437.06,271.1,431Z" transform="translate(8.5 7)"/><path class="cls-167" d="M324.64,395.36c11.26,5.7,13.62-6,19.84-10.16q3,3.68,5.92,7.33L345.14,408l0,0c-10.56,12.28.72,26-2.59,38.75-1.24,4.74,3.35,12.94-4.84,13.38-6.65.36-9.39-6.95-9.89-12.92C326.4,430,325.65,412.64,324.64,395.36Z" transform="translate(8.5 7)"/><path class="cls-168" d="M337.48,256.85c25.23,12.93,20.83,30.15,7,48.73-3.33-3.14-3.14-3.09-.79-11.78.67-2.47-.11-5.33-.23-8-1.2,2.38-2.41,4.75-3.61,7.12-1.17,1.6-3.2,2.16-4.34,1-6.34-6.56-14.08-6.46-22.2-5.21-11.94-5.26-11.56-5-3.76-15.48a134.16,134.16,0,0,1,11.65-14.39C326.13,253.7,331.88,255.93,337.48,256.85Z" transform="translate(8.5 7)"/><path class="cls-169" d="M314.45,285.32c12.14-9.72,20.74-7.6,25.45,7.59-6.52,6.78-6.12,23.75-22.84,15.47-5.48-3.27-11.62-6-12.17-13.66C305.54,289,308.84,286,314.45,285.32Z" transform="translate(8.5 7)"/><path class="cls-170" d="M268.56,303.27c-9.54-21-10.37,13.73-18.32,2.87-9-1.42-11.6-5.89-5.12-10.85C255.19,287.56,264,276,279.24,277.9c4.55,2.78,8.19,6.32,9.95,11.5,0,5.6,3,11.77-3.07,16.23C280.51,303.08,273,314.59,268.56,303.27Z" transform="translate(8.5 7)"/><path class="cls-165" d="M286.12,305.63q.24-7.69.47-15.39l1.4-.17c2.7-.07,4.36-1.85,6.07-3.65a11.58,11.58,0,0,1,2.86-1.85c9-1.47,10.5,3.84,10,11l10.13,12.85C306.22,313.38,296.27,308.38,286.12,305.63Z" transform="translate(8.5 7)"/><path class="cls-171" d="M360.55,386l-10.79-13.45c1.27-9.67,7.86-9.42,14.72-7.41s12.71,6.13,19.42,8.37a12,12,0,0,1,3.62,1.36c2.92,2.57,5.5,5.38,6.05,9.45-.54,8.56-5.92,8.72-12.29,6.87-7.07-2.06-13.59-5.8-20.95-7.05A12.77,12.77,0,0,0,360.55,386Z" transform="translate(8.5 7)"/><path class="cls-172" d="M386.13,377.35c-12.5,1.29-22.43-16.93-36.37-4.79-7.57-6.36-6.06-10.62,3-13.13L375.54,354a2.52,2.52,0,0,1,3,0c1.81,3.45-2.23,5.61-1.86,8.76,2.46,3.4,6.95,4.39,9.08,8C387,372.86,387.57,375.05,386.13,377.35Z" transform="translate(8.5 7)"/><path class="cls-173" d="M248.51,360.15c5.33.2,15.81-8.69,12.35,7l-8,4.93c-11-8.16-20,10.87-31,2.14C228.25,364.89,237.2,360.27,248.51,360.15Z" transform="translate(8.5 7)"/><path class="cls-174" d="M246,380l4.39-3.08,10.78,1L237.47,400c-3.77.59-4-2.19-4.46-4.7C233.16,386.62,240.45,384.05,246,380Z" transform="translate(8.5 7)"/><path class="cls-175" d="M336.94,377.65c-5.19-.94-8.55,9.86-14.78,2.31-.69-3.74-1.85-7.95,3.37-9.19C331.28,369.39,335.3,371.77,336.94,377.65Z" transform="translate(8.5 7)"/><path class="cls-167" d="M345.14,408c4.08,6.28,9.13,12.15,11.95,19,2.25,5.42,4.31,15.74,2,17.27-6,4-4.09-4.33-6-7.12-.89-1.29-.77-3.24-1.21-4.86-2.23-8.09-4.5-16.17-6.75-24.26Z" transform="translate(8.5 7)"/><path class="cls-176" d="M271.1,431c3.85,7.18-11.44,18.61,5.1,23,.07,1.79.13,3.57.2,5.36l-22.93,27.08Q262.29,458.73,271.1,431Z" transform="translate(8.5 7)"/><path class="cls-177" d="M92.21,349l45.44-35.78c8.15-3.13,16-4.32,24.23.61,5.57,3.32,12.43,1.76,18.73,1.78,7.67,0,15.2.73,22.48,3.15,3.64,1.21,7.66,2.73,6.78,7.63-.8,4.41-4.51,5.76-8.58,6.08s-8.47-1.45-12.21,1.42c-21.07.51-42,2.81-62.41,8.62-.82.23-1.62.52-2.43.75,1-.27,2-.62,2.94-.92,13.42-4.13,27.47-5.06,41.12-8a15.57,15.57,0,0,1,5.1-.07,5,5,0,0,1,3.92,3.63c-2.28,6.53-9.73,5.42-13.77,9.36a9.86,9.86,0,0,1-3.79.68c-8.41-.25-16.2,2.58-24.09,4.95-13.5,3-26.63,6.81-38.61,14.05a20,20,0,0,1-13.24,3c-2.66-.94-5.35-1.84-4.43-5.58l7.8-10C88.33,352.11,88.84,349.24,92.21,349Z" transform="translate(8.5 7)"/><path class="cls-178" d="M92.21,349l-5,5.38c-32.94-29.49-33.45-59.73-2.72-91.34,2.64-2.71,1.85-8.76,2.65-13.27l5.13-.13q3.82,3.87,7.63,7.76l-5,12.78c-2.71,4.19-4.45,8.85-8.6,12.29-14,11.65-14.44,21.12-2.06,34.55a38.4,38.4,0,0,1,3,4.09C103.44,327.79,95.62,338.8,92.21,349Z" transform="translate(8.5 7)"/><path class="cls-179" d="M79.39,364.37l4.9,2.44c3,5-1.15,7.73-3.63,10.83-2.92,3.62-6.61,6.84-3.8,12.19l-7.17,5.76c-5.78-5.84-13.8-11-5.89-20.77Z" transform="translate(8.5 7)"/><path class="cls-18" d="M63.8,374.82C57.83,384,70,388,69.69,395.59l-5.56,4.48C64.66,391.64,52.73,383.38,63.8,374.82Z" transform="translate(8.5 7)"/><path class="cls-180" d="M28.53,196.06c9.12-7.35,18-17.08,31.08-9.17C70.2,193.3,69.09,204.06,66,214c-4.09,13.3-15.43,15.2-27.36,15.36C22,222.3,24.64,209.36,28.53,196.06Z" transform="translate(8.5 7)"/><path class="cls-181" d="M524.07,405.15l-9.94-5-10.64-5.4c-.54-11.68-5.26-21.66-12.47-30.62l48.22,30.45C531,393.56,538,414.39,524.07,405.15Z" transform="translate(8.5 7)"/><path class="cls-182" d="M125,448.76l-1.85,2.77c-11.69.88-5.85,34.14-28.22,15.27,9.22-3.12,11.45-10.69,8.09-18.09-4.36-9.59-9.29-.49-14.07,1.18-8.22,2.89-14.44,1.81-14.37-8.95,12,13.18,17.8-3.87,26.64-5.87,6.62-1.49,12.52-6.17,18.74-9.43C126.55,432.27,129.28,439.75,125,448.76Z" transform="translate(8.5 7)"/><path class="cls-183" d="M470.51,303.15l17,.64,26.18,10.15c3.36,9.89-2.23,13.54-10.62,15.23-3.57,3.91-7.81,2.64-11.69,1.07-8.92-3.62-18.37-5.92-26.74-10.9a10.64,10.64,0,0,1-2.27-3.26C459.31,308.16,462,303.82,470.51,303.15Z" transform="translate(8.5 7)"/><path class="cls-184" d="M503.61,351.74,478,341.66c-8.06-.79-16.35,2.57-24.26-1.94-4.61-2.62-9.28-4.6-7.28-11.22,6.68-5.62,14.68-4.58,21.55-2.05,11.2,4.12,22.82,6,34.21,9.06,5.33,1.05,8.64,4.68,11.43,9l2.39,2.66C512.65,350.75,505.15,343.21,503.61,351.74Z" transform="translate(8.5 7)"/><path class="cls-106" d="M465.21,316.09l37.86,13.08c.25.65.48,1.3.68,2,.81,2.68-.82,3.91-2.9,4.86a140.36,140.36,0,0,1-42.26-13C458,318.06,458.1,313.71,465.21,316.09Z" transform="translate(8.5 7)"/><path class="cls-16" d="M500.2,334.75l3.55-3.62,23.56,5c-5.68.95-13.51-1.59-13.68,8.37L503.34,339C502,337.78,500,337.11,500.2,334.75Z" transform="translate(8.5 7)"/><path class="cls-185" d="M447.22,329,478,341.66c-9,1.2,13.85,15.17-5,12.39-6.3,3.66-12.32,1.09-18.16-1.14-10.26-3.93-20.56-7.75-31.1-11.07-6.44-2.32-17.48-1.46-16.84-9.82.8-10.45,11.92-6.73,18.84-6.73C432.93,325.29,441.07,322.21,447.22,329Z" transform="translate(8.5 7)"/><path class="cls-186" d="M427,338.85l46,15.2,7.33,5.77-25.49-.19-28-8.31c-10.41-5.13-10.87-5.84-8.8-13.42C421,338,424.14,337.05,427,338.85Z" transform="translate(8.5 7)"/><path class="cls-187" d="M146,407.63l-24.49-5.43q13.65-17,27.31-33.93c1.65-2,3.53-3.92,5.3-5.87-2.35.48-4.86.57-7,1.5-7,3-13.65,7.17-20.91,9-2.59.66-7.91,15.31-10.78-.34-.28-1.52-6.37-2-9.76-2.91-1.77-6.74,3.11-8.91,7.82-10.55,6.36-2.22,12.3-5.53,18.85-7.2,9.44-3.41,19.29-5.35,29-7.78l-.21.12c11.17-2.3,21.32-8.3,32.92-9,6.27.12,12.57-.41,18.82.53,3.45.67,5.48,3.5,8.09,5.48,12.35,9.37,12.68,14.25,1.87,25.71-6.56,4.52-14,7.46-20.93,11.44-7,1.62-12.37,6-17.58,10.66-6.09,4.63-13.12,7.84-19.1,12.67C159.38,405.53,154.75,413.29,146,407.63Z" transform="translate(8.5 7)"/><path class="cls-188" d="M146,407.63l17.4-10c8.54-2.12,8.11,2,5.42,7.75l-10.19,10.1C155.13,429,146.16,437.08,133,441l-8,7.8c1.95-8.5-10.57-13.86-5-23.13Q133,416.65,146,407.63Z" transform="translate(8.5 7)"/><path class="cls-189" d="M132.84,354.06l-27.16,15.6q-14.42,10.08-28.82,20.17c-12.49-12.5,3.51-15.81,7.43-23l51.49-17.7C137.17,352.16,134.91,353.05,132.84,354.06Z" transform="translate(8.5 7)"/><path class="cls-190" d="M439.63,278l-18.2,4.49c-8.48,10.88-19.8,10.81-31.74,8.26a9.12,9.12,0,0,1-4.21-4.35c1-10-11.4-8.42-13.59-15.75.3-8.16,7.15-9.51,12.65-12.32,11.95-1.54,24.22-4.34,32.23,8.65l4.72.83Z" transform="translate(8.5 7)"/><path class="cls-191" d="M429.35,235.79c0-11.21,3.76-18.95,14.29-18.82,9.35.12,17.77,7.84,17.49,15.56-.41,11.5-12.06,18.6-22,19.55C430,253,430.18,241.82,429.35,235.79Z" transform="translate(8.5 7)"/><path class="cls-192" d="M388.2,232l-28-20.39-2.64-20.31c11.05-7.78,22.31-9.33,31.42,2.08C399,205.9,398.53,219.28,388.2,232Z" transform="translate(8.5 7)"/><path class="cls-193" d="M416.77,267c-11.37-3.82-22.91-6.07-34.94-3.77a6.23,6.23,0,0,1-3.05-1.71c-2.83-5.58-3.83-11.24-.6-17l13.09-7.7C397.1,249.1,425.25,242.59,416.77,267Z" transform="translate(8.5 7)"/><path class="cls-194" d="M130.6,234.53l5-.26c2.64-6.12,8-10.42,10.82-16.52,2.48-5.38,7-6.58,12.42-4,5.56,9.81-5.38,21,2.53,30.61.76,1,2.32,1.3,2.49,2.82l10.4,7.83c9.32,9.26,22.06,1,32.19,6.28,4.17,5,5.92,10.5,3.11,16.79-3.35,5.09-8.69,7.75-14.14,6.68-14.07-2.77-26.68,2.2-39.61,5.88-5.08,1.44-9.95,2.23-14.09-2.15C123.23,273.53,131.11,253.17,130.6,234.53Z" transform="translate(8.5 7)"/><path class="cls-195" d="M250.57,219.82c12.54-2.52,34,7.08,56.1,12.43,1.76.43,3.17,2.27,4.74,3.45-1.92,1.2-3.77,3.3-5.78,3.47-35.85,2.94-71.73,5.47-107.57,8.53-8,.68-9.65-4.85-10.28-9.87-.82-6.58,3.3-11.7,10-12.61C211.56,223.35,225.5,222.31,250.57,219.82Z" transform="translate(8.5 7)"/><path class="cls-196" d="M243.33,193c28.78,2.2,54.69,2.84,72.42,25.62,2,2.51,3.33,5.48,5,8.23-3.06,0-6.39.9-9.14,0-22.5-7.27-45-14.63-67.24-22.57-4.36-1.55-7.78-5.73-11.63-8.7Z" transform="translate(8.5 7)"/><path class="cls-197" d="M223.55,150.13c16.81,12,33.84,24.2,50.77,36.49.56.4.26,3.17.11,3.2-2.42.37-5.28,1.39-7.28.51-19.28-8.45-38.45-17.18-57.56-26-1.19-.55-2.41-3.92-2.29-4C211.78,157.28,216.42,154.49,223.55,150.13Z" transform="translate(8.5 7)"/><path class="cls-198" d="M208.89,204.13c15.78-2.09,26.52.61,36.18,7.56q-13.71,2.46-27.43,4.89c-1.67.29-3.52.95-5,.53-10.77-3-28.83,18.1-31.15-3.77C180,199.27,202.13,207.76,208.89,204.13Z" transform="translate(8.5 7)"/><path class="cls-199" d="M253.22,150.15l10.26,0c11.07,12.88,24.87,23.85,29.2,41.47C279,182.23,265.34,173,251.82,163.45c-3.61-2.54-6.65-5.88-9.94-8.86Z" transform="translate(8.5 7)"/><path class="cls-200" d="M237.21,188.45c-16.43-2.71-31-5.09-45.46-7.52-6.06-1-7.6-5.85-6.42-10.42,1.42-5.5,6.33-8.47,11.92-6.16,14.4,5.93,28.55,12.44,42.74,18.87,1.3.59,2.12,2.25,3.16,3.42Z" transform="translate(8.5 7)"/><path class="cls-201" d="M307.3,177.29l.22.3a87,87,0,0,0,5.09,7.23c7.63,8.88,17.65,16.66,14,30.59-.24.92-3.23,2.22-3.69,1.84-10.78-9.07-20.72-19.18-25-32.81C296.22,179,297.55,171,307.3,177.29Z" transform="translate(8.5 7)"/><path class="cls-202" d="M158.82,213.74c-12.23,1.77-8,22.16-23.24,20.53-6.44-10-8.19-20.55-.76-30.53,7.69-10.32,12.71,3.56,19.5,3Z" transform="translate(8.5 7)"/><path class="cls-203" d="M199.83,252.47l96.62-8.19c3.06-.81,7.08-2.62,7.75,2.11.51,3.56-3,6.08-6.46,6.36-8.68.71-17.16,2.73-25.83,3.31-3,0-6.09,0-9.13.1-16.95,4.44-34.54.91-51.66,4.2C206.16,261.32,199.51,260.89,199.83,252.47Z" transform="translate(8.5 7)"/><path class="cls-204" d="M380.45,262.1a3.14,3.14,0,0,1,1.4,1.12c-2.82,3.07-5.61,6.14-8.4,9.21a6.82,6.82,0,0,1,1.36,3.44c-.92,3.39-2.47,5.84-6.61,4.43-6.8-9.64-21.45-13.31-21.39-28.16a3.16,3.16,0,0,0,1.2-1.79c5.23-7.39,11.84-5.37,17.67-1.66C371.25,252.24,376.73,256.31,380.45,262.1Z" transform="translate(8.5 7)"/><path class="cls-205" d="M193.66,185.06c9.46,1.88,20.35.56,27.11,10.37-10.41,1.91-20.8,3.89-31.23,5.69-7.41,1.28-11-4.19-10.53-9.49C179.74,183,188,186.28,193.66,185.06Z" transform="translate(8.5 7)"/><path class="cls-206" d="M199.83,252.47c21.29,8,42.56-.16,63.85,0a5.8,5.8,0,0,1,1.27,5.09c-3.49,6.37-10,6.74-16,8a14,14,0,0,1-3.86-.63c-13.12-3.29-26.72,1.29-39.79-2.5-10.8-.62-22.65,3.21-31-7.42C182.63,252.77,192.11,261.52,199.83,252.47Z" transform="translate(8.5 7)"/><path class="cls-207" d="M380.45,262.1c-13.33,3-18-18-32.44-11.75,6.71-19.13,20-4.34,30.17-5.88C383.92,249.7,380.27,256.15,380.45,262.1Z" transform="translate(8.5 7)"/><path class="cls-208" d="M332.88,198.64l6.35.19c2.37,3.48,4.93,6.85,7.06,10.47,3,5.08,6.82,10.63,2.15,16.22-1.71,2-8.47,3.21-8.9,2.46a56.18,56.18,0,0,1-6.19-15.47C332.35,208.08,333,203.28,332.88,198.64Z" transform="translate(8.5 7)"/><path class="cls-206" d="M271.06,252.18c8.39-1,16.82-1.91,25.17-3.27,1.48-.24,2.64-2.51,3.94-3.85l-3.72-.78c8.46-4.88,16-1.38,23.4,2.68,2.06,3.23.91,5.79-1.68,8-14.32,10.95-29.56,4.1-44.5,2.12C271.58,256.85,270.54,254.58,271.06,252.18Z" transform="translate(8.5 7)"/><path class="cls-207" d="M316.94,252.25l2.91-5.29c10.65-8.24,8.65,12.15,17.59,7.77,0,.71,0,1.41,0,2.12-6.51-1.55-10.91,2-15,6.23a5.08,5.08,0,0,1-5.17-1.74A7.82,7.82,0,0,1,316.94,252.25Z" transform="translate(8.5 7)"/><path class="cls-209" d="M163.84,247.17l-2.49-2.82c8.3.58-5.11-12,5.31-9,2.42.69,4.76,6.84,4.57,10.34C170.89,252,166.52,247.3,163.84,247.17Z" transform="translate(8.5 7)"/><path class="cls-210" d="M297,166.27c-3.17,1.84-5.75,4.38-7,3.84-2.3-1-3.81-3.79-5.65-5.84,1.8-1.35,4-4.12,5.31-3.75C292,161.18,293.89,163.71,297,166.27Z" transform="translate(8.5 7)"/><path class="cls-211" d="M265.86,150.18c-.43-1.5-.87-3-1.31-4.5,6.05-.24,11.12,1.56,14.39,7C273.34,158.28,270.31,150.59,265.86,150.18Z" transform="translate(8.5 7)"/><path class="cls-212" d="M141.7,288.48l65.37-11.59c8.33-10.26,20.87-11.35,33-2.92,3.71,11.88-4.19,18.43-11.68,25.19-4.61,3.21-6.71,9.73-13.47,10.14a33.9,33.9,0,0,1-6.29-.35c-26.89-1.09-53.44-5.65-80.26-7-1.92-.1-2.94-1.3-2.89-3.29Z" transform="translate(8.5 7)"/><path class="cls-213" d="M125.51,298.62c28.64,6.5,58.64-3.6,86.94,7.13,5.05,4.64,13.85,2,17.67,9.09s-2.86,14.3.71,21.34a7.18,7.18,0,0,1-6.57,3.46c-9.69-4.67-19.8-2.54-29.82-1.84-6-1.05-11.88,3.07-18,.69l-2.42-2.12c1.42-8.38,9.78-.18,12.58-5.27a15.77,15.77,0,0,1,2-3.13c5.35-5,13,5.72,17.9-2.51-8.1-1.42-16.71-5.32-24.19-3.76-16.59,3.45-29.26-9.12-44.73-8.46l10.52-9.05c-4.94-.33-10.2.24-14.68-1.36C131,301.92,122.83,309.25,125.51,298.62Z" transform="translate(8.5 7)"/><path class="cls-214" d="M87.15,321.13c-11.53,1.33-13.35-6.69-16.06-15.29-4-12.74-.24-21.17,11.1-27.29,4.43-2.39,8.44-5.54,12.65-8.35C99.89,288.33,97.94,305.4,87.15,321.13Z" transform="translate(8.5 7)"/><path class="cls-215" d="M235.55,395.84l1.92,4.13-34.79,46.58-7.59,0c-3.05-3.33-1-6.42.88-9.05,8.95-12.67,17.81-25.44,28.19-37C226.93,397.43,229.79,392.54,235.55,395.84Z" transform="translate(8.5 7)"/><path class="cls-216" d="M235.55,395.84l-40.46,50.74-8.17,5c-3.12-8.24-12.6-2-13.19-3.12-3.65-7.14-16.33,20.29-14-3.78.14-1.5-3.28-4.83-4.82-4.69-3.94.34-8.33,1.35-11.48,3.59-4.34,3.08-7.71,7.54-11.5,11.4q.57-7,1.13-14l25.65-25.51c2.75,2.65,5,5.76,9.64,2.23,2-1.56,4.47-8.76,8.24-1.73,2.17,4.05,6.3,8.36.52,13.46-2.73,2.42-3.95,6.55-5.85,9.9,3.39-2.12,7.24-3.75,10.11-6.43q23.72-22.17,47-44.84c5.06-4.94,10.05-9.23,17.72-8Q240.78,387.92,235.55,395.84Z" transform="translate(8.5 7)"/><path class="cls-217" d="M360.33,384.15c10.64-12.11,20.56,10.26,31.14.64,12.87,1,17.68,10.85,22.52,20.63l7.41,10.28c-6,6.66,10.62,13.46,1.12,17.22-3.28,1.3-11.34-10.34-17.68-15.5-3-2.43-3.16-14.13-11.41-4.19-.86,1-6.41-1.82-9.79-2.87-3.17-.93-.51-10.23-7.71-5.38Z" transform="translate(8.5 7)"/><path class="cls-218" d="M386.13,377.35l-3-4.77c.29-11.27,9.62-13.55,17.46-16.46,4.13-1.53,9-2,13.51-2.66,5.4,0,9.31,2.75,12.65,6.64,7.46,6.79,20.33,4.2,25.61,14.77-3.32-.46-6.65-.84-9.95-1.4-3.53-.6-7-1.38-10.53-2.08,2.53,2.35,5.58,4.35,7.46,7.14,2.77,4.11,13,4.32,9,10.8-3.26,5.3-10.08.75-15.84-.88-9.94-2.82-20.7-2.76-31.11-3.91-7.4,2.33-10.14-5.13-15.39-7.31Z" transform="translate(8.5 7)"/><path class="cls-172" d="M386,377.23l15.39,7.31L418,399.82l-4,5.6-22.52-20.63Z" transform="translate(8.5 7)"/><path class="cls-219" d="M426.75,360.1,414,357c-9-1.33-17.24.9-25.41,4.46a39.85,39.85,0,0,1-18.42,3.32c-11.72-14.56,9.73-3.71,8.09-10.55,1.33-7.69,5.05-14.12,3-23.45-2-8.88,8.58-11.72,17.59-10.15a9.17,9.17,0,0,1,2.93,2c3.13,4.11-.69,11,5.59,13.89.36,5.17,2.85,8.55,8,9.88,4.33,1.11,7.66,3.44,8.86,8.05C425.06,356.33,425.9,358.21,426.75,360.1Z" transform="translate(8.5 7)"/><path class="cls-220" d="M424.21,354.45c-5.22-1.57-10.5-3-15.65-4.77-3.71-1.29-7.25-3.12-10.86-4.71l8.38-8c4.43-3.9,7.15.51,10.43,2.16l10.34,12.24Z" transform="translate(8.5 7)"/><path class="cls-221" d="M470.51,303.15q-2.76,5.36-5.54,10.69c-6.54,3.48-12.5,1.1-18.45-1.79-3.14-2-6.55-.65-9.88-.77-5.84-1.06-12-.83-17.43-3.07-5.07-2.08-7.75-6.37-7.33-12.18,1.92-7.74,8.57-7.54,14.46-8.61,3.21-.2,6,.5,7.72,3.57l26.31,9.22Z" transform="translate(8.5 7)"/><path class="cls-222" d="M427.29,291.31,414,295.53c-2.25,4.14-5.64,6.44-10.44,6.5-8.17-.85-16.8-1.23-14.12-13.46l32-6.07,2.74,1.07C428.43,284.85,429.24,287.53,427.29,291.31Z" transform="translate(8.5 7)"/><path class="cls-223" d="M427.29,291.31l-3.12-7.74c5.5.72,13-.46,16,2.67,3.26,3.4-3.35,3.66-6.08,4.75Z" transform="translate(8.5 7)"/><path class="cls-224" d="M522.81,185.4c11.16,3.67,26.64,1.81,30.54,17.19,1.63,6.42-6.41,11-13.4,9.9-12.83-2.06-25.84-6.54-30-19.94C507.75,185.3,517.1,186.65,522.81,185.4Z" transform="translate(8.5 7)"/><path class="cls-225" d="M199.61,374.8,219.82,364a45.06,45.06,0,0,0,11.37-7.1c4.47-3.6,9.65-4.53,14.45,0l2.87,3.27-26.72,14.07-24.53,10.94C193.19,380.61,197,377.85,199.61,374.8Z" transform="translate(8.5 7)"/><path class="cls-226" d="M168.85,405.35l-5.42-7.75,18.28-12.67c9.57-2.59,10.34-2.19,10,5.11Z" transform="translate(8.5 7)"/><path class="cls-227" d="M191.76,390c-1.14-6.06-6.19-4.41-10-5.11l17.9-10.13q-1.17,5.19-2.35,10.36Z" transform="translate(8.5 7)"/><path class="cls-228" d="M389.45,288.57c2.86,5.7,6.34,10.56,13.69,10.26,3.18,5.17,1.28,10.53.64,15.86a9.36,9.36,0,0,1-1.86,3.07c-6,4.28-13,2.7-19.62,3.33-4.55.43-7.55-2.49-9-7.29-1.69-5.56-2.58-11.67-7.47-15.78l2.37-17.72,5.26-4.77c7.54-2.43,10.27,4.45,14.89,7.69C388.72,285,389.08,286.79,389.45,288.57Z" transform="translate(8.5 7)"/><path class="cls-229" d="M365.83,298c4.8-1.08,9,.06,9.47,5.37,1.75,18.36,14.91,13,25.66,12.74,2.5,3.34-.1,5.06-2.2,6.94-7.31,1.31-18.26-.55-8.38,13.15,1.46,2-7.83,11.81-12.14,18l-2.7-.25C388.31,332.54,359.19,318.38,365.83,298Z" transform="translate(8.5 7)"/><path class="cls-230" d="M355.86,312.29c-.41-7.49-1.27-10-.49-11.87,1.19-2.81,3.52-5.14,5.37-7.67.34,1.65,1.29,3.47.89,4.92C360.7,301,359.12,304.21,355.86,312.29Z" transform="translate(8.5 7)"/><path class="cls-231" d="M229.78,334c-21-3.68,1.87-12.85-2.34-18.64-2.19-2.93-3.29-6.11-1-9.38,10.42-15,22.12-28.57,40.27-34.63,3.73-1.24,6.58.3,9.29,2.6,2.14,1.52,3.72,3.27,2.79,6.16-10,5.36-20.37,10.28-29.93,16.39-2.64,1.68-7.5,7.66,1.4,9.62l-7.49,7.24c-5.87,2.8-5.32,8.91-6.45,13.78C235.35,331.25,234.81,334.38,229.78,334Z" transform="translate(8.5 7)"/><path class="cls-232" d="M245.64,356.88,219.82,364c16.54-12.09-3.51-16.61-5.17-24.93,2.65-3.18,5.93-2.21,9.18-1.39,3.27.51,6.65.76,8.88,3.72C238.63,345.2,250.32,344.23,245.64,356.88Z" transform="translate(8.5 7)"/><path class="cls-170" d="M232.71,341.37l-7.37-2.52c-1-.44-1.39-1-1.16-1.57s.51-1,.81-1l4.79-2.27c10.56-3-5.3-22.53,13-20.65C247.34,325.56,238.77,333,232.71,341.37Z" transform="translate(8.5 7)"/><path class="cls-170" d="M319.57,260c1,1,1.93,2.07,2.9,3.11-3.29,7.19-17.59,10.41-8,22.24l-7.52,10.21c-2.94-3.26-2.84-10.64-10.38-7.66C292.84,270.6,304.08,257,319.57,260Z" transform="translate(8.5 7)"/><path class="cls-233" d="M319.57,260c-14.63,3.56-16.38,17.75-23,27.9v0c-5.67-1.5-5.73-1.48-10,2.31l0,0-7.82-10.11-5.2-2.54a5.75,5.75,0,0,1-1.33-3.45c-1.35-11.45-1.35-11.45-9.06-17.07.16-1.55.33-3.09.49-4.64l7.39-.25c15.29,4,30.58,6.76,45.88.07C317.82,254.82,318.69,257.39,319.57,260Z" transform="translate(8.5 7)"/><path class="cls-170" d="M286.57,290.2c-.21-3.46-.41-6.92-.62-10.38l10.59,8.07q-2.1,6.24-4.19,12.49Z" transform="translate(8.5 7)"/><path class="cls-234" d="M370.15,364.77C383.4,354.54,398,351.9,414,357c-12,1.86-21.94,7.68-30.85,15.59Z" transform="translate(8.5 7)"/><path class="cls-235" d="M186.63,331.1l-12.58,5.27c-18.56,3.79-37.11,7.62-55.68,11.33a52.58,52.58,0,0,1-7.23.47c2-1.88,3.65-4.62,6-5.51C139.52,334.26,163,332.38,186.63,331.1Z" transform="translate(8.5 7)"/><path class="cls-236" d="M176.47,338.49l18.11-1.87c1,.39,1.38.84,1.08,1.33s-.61.77-.93.77l-33.58,5.53Z" transform="translate(8.5 7)"/><path class="cls-237" d="M132.84,354.06l2.94-4.95,25.58-5Z" transform="translate(8.5 7)"/><path class="cls-238" d="M33.69,208.91c-.21-11.67,5.72-16.63,13.92-17.22a14.08,14.08,0,0,1,15.46,13.59c.22,8.34-5.66,15.5-15,15.94C38.83,221.66,35,215.08,33.69,208.91Z" transform="translate(8.5 7)"/><path class="cls-239" d="M447.65,308.05,465,313.84c.07.75.14,1.5.24,2.25-4.92.23-5.11,3.55-4.73,7.24-8.77,5.9-18.59,1.88-27.88,2.89a94.05,94.05,0,0,1-13.74,0c-11.23-2.23-5.15-10.66-5.93-16.61,2.54-4.59,6.67-2.42,10.27-2.35C431,317.9,439.25,315.08,447.65,308.05Z" transform="translate(8.5 7)"/><path class="cls-240" d="M414.11,323.46l46.37-.13,39.72,11.42,3.14,4.23-56.12-10c-5.84-.12-11.71-.66-17.5-.23-6.8.5-13.53,1.86-20.28,2.84L427,338.85l-10.44.24-10.42-2.16-10.61-7.43,6.1-5.54C405.59,319.52,409.76,319.42,414.11,323.46Z" transform="translate(8.5 7)"/><path class="cls-241" d="M194.73,338.72c-.08-.7-.12-1.4-.15-2.1L225,336.3c.12.85.23,1.7.35,2.55l-10.68.19Z" transform="translate(8.5 7)"/><path class="cls-242" d="M388.35,283.22c-13.91,14.72-8.19-8.51-14.89-7.69,0-1,0-2.07,0-3.1C381.69,271.51,390,270.47,388.35,283.22Z" transform="translate(8.5 7)"/><path class="cls-243" d="M240.23,277.8c-10.83-8.39-21.95-6.41-33.16-.91q-.9-7.25-1.79-14.48c14.35-4.18,28.72-3.46,43.12-.3-.35.8-.81,1.65-1.57,1.87-6.89,2-13.89.95-20.86.62,6.48,1.54,13.46-1.39,19.77,2.23C248,272.56,245.43,275.86,240.23,277.8Z" transform="translate(8.5 7)"/><path class="cls-244" d="M240.23,277.8l5.7-9.85c.58-2.61,3.26-3.4,4.62-5.34l12.63-5.54c7.29,1.95,16.18-3.75,21.95,4.1,1.1,1.49-1.11,5.4-1.8,8.19-9.79-5-8.8,2.76-9.76,8.23-25.35.44-35.11,19.88-46.12,37.8-5.62-2.43-11.23-4.84-16.82-7.31-.2-.09-.35-.95-.2-1.07a15.82,15.82,0,0,1,2-1.26l4.54.48c9.26,1.39,5.35-7,7.9-10.62Q232.56,286.7,240.23,277.8Z" transform="translate(8.5 7)"/><path class="cls-245" d="M250.55,262.61c2.38,5.18.95,7.05-4.62,5.34l-29.56-4.37,32-1.47A12,12,0,0,0,250.55,262.61Z" transform="translate(8.5 7)"/><path class="cls-213" d="M224.88,295.61c3.39,8,5.85,15.35-7.9,10.62Z" transform="translate(8.5 7)"/><path class="cls-246" d="M414.11,323.46l-12.53.5-2.82-.88c.73-2.32,1.47-4.64,2.2-6.95l.54-2.76c3.21-4.85,7.19-6.31,12.29-2.79C425,314.6,415.48,319.13,414.11,323.46Z" transform="translate(8.5 7)"/><path class="cls-247" d="M413.79,310.58l-12.29,2.79c-2.27-5.17-7.18-10.64,1.65-14.55L414,295.53c4.31,14.23,16.5,9,26,10.5-3.6,9-9.24,7.16-15.35,2.93Z" transform="translate(8.5 7)"/><path class="cls-248" d="M424.62,309,440,306l7.68,2c-3,8.81-6.4,16.81-18.49,13.28C421.64,319.13,424.62,313.62,424.62,309Z" transform="translate(8.5 7)"/></svg>