<svg xmlns="http://www.w3.org/2000/svg" viewBox="0 0 590 369"><defs><style>.a{fill:#fff;}.b{fill:#4c4c4c;}.c{fill:#ff931e;opacity:0.79;}</style></defs><rect class="a" width="590" height="369"/><path class="b" d="M329.64,17.35h-.48c-2-.1-2.62-.53-3.1-1.21a28,28,0,0,1-1.65-2.81.9.9,0,0,0-1-.53l-.32,0v2.34c0,1.3.16,1.41,1.36,1.55v.6h-4.89v-.6c1.21-.12,1.36-.25,1.36-1.55V9c0-1.26-.16-1.44-1.36-1.54V6.85h4.64a4.89,4.89,0,0,1,2.9.61,2.45,2.45,0,0,1,1.07,2.13,2.73,2.73,0,0,1-2,2.59c.24.48.86,1.52,1.34,2.26a12.05,12.05,0,0,0,1.22,1.66,1.93,1.93,0,0,0,1,.71Zm-6.09-5.23a2.31,2.31,0,0,0,1.56-.42,2.28,2.28,0,0,0,.76-1.87c0-1.7-1-2.31-1.88-2.31-.43,0-.64.07-.73.16s-.15.29-.15.61v3.83Z" transform="translate(0 -0.15)"/><path class="b" d="M337.92,16.87c-1,.13-2,.34-3.05.58V16.36a3.54,3.54,0,0,1-2.2,1.09,2,2,0,0,1-2.1-2.29V11.85c0-.74-.1-.82-.53-.93l-.34-.1v-.51c.82,0,2.09-.15,3-.27,0,.67-.05,1.5-.05,2.41v2.34c0,1,.53,1.39,1.09,1.39a1.41,1.41,0,0,0,1.15-.46V11.86c0-.73-.08-.86-.52-.94l-.48-.1v-.51c.92,0,2.29-.15,3.09-.27v5.21c0,.84.09,1,.6,1.06l.36,0Z" transform="translate(0 -0.15)"/><path class="b" d="M347,16.84a26.7,26.7,0,0,0-3.14.62v-.92l-1,.62a1.48,1.48,0,0,1-.8.29,3.44,3.44,0,0,1-3.29-3.56A4.16,4.16,0,0,1,343.21,10a4.35,4.35,0,0,1,.64,0V8.16c0-.84-.08-.92-1.07-1V6.58A21.11,21.11,0,0,0,345.93,6v9.21c0,.86.1.94.7,1l.36,0Zm-3.14-5.36a1.24,1.24,0,0,0-1.2-.8c-.5,0-1.57.33-1.57,2.65,0,2.1,1.17,2.87,1.89,2.88a1.42,1.42,0,0,0,.88-.27Z" transform="translate(0 -0.15)"/><path class="b" d="M351,10.26a2.8,2.8,0,0,1,1.14-.3,3.26,3.26,0,0,1,3.25,3.37,4.15,4.15,0,0,1-4.21,4.12,7.51,7.51,0,0,1-2.85-.58c0-.38,0-.83,0-1.23V8.23c0-.91-.1-1-1-1.11V6.58A21.45,21.45,0,0,0,350.36,6v4.5Zm-.59,5.23a1.54,1.54,0,0,0,.1.55,1.34,1.34,0,0,0,1.13.74c.85,0,1.48-1,1.48-2.92s-1-2.85-2-2.85a2.2,2.2,0,0,0-.74.12Z" transform="translate(0 -0.15)"/><path class="b" d="M362.78,15.69a3.67,3.67,0,0,1-2.93,1.76A3.27,3.27,0,0,1,356.49,14a4.2,4.2,0,0,1,1.2-2.88A3.57,3.57,0,0,1,360.18,10a2.63,2.63,0,0,1,2.65,2.61c0,.27,0,.54-.21.59s-2.56.19-4.12.25c.07,1.7,1,2.57,2.17,2.57a2.76,2.76,0,0,0,1.82-.73Zm-2.91-5.08c-.65,0-1.19.75-1.29,2l1.94-.05c.23,0,.32-.05.32-.32C360.86,11.46,360.49,10.61,359.87,10.61Z" transform="translate(0 -0.15)"/><path class="b" d="M370.27,15.7a3.7,3.7,0,0,1-2.79,1.75A3.38,3.38,0,0,1,364,14,3.8,3.8,0,0,1,365.61,11a4.63,4.63,0,0,1,2.78-1,2.5,2.5,0,0,1,1.41.38.66.66,0,0,1,.31.59,1,1,0,0,1-.72.9.5.5,0,0,1-.36-.18,2.86,2.86,0,0,0-1.66-.83c-.62,0-1.38.61-1.38,2.34A2.56,2.56,0,0,0,368.23,16,2.39,2.39,0,0,0,370,15.3Z" transform="translate(0 -0.15)"/><path class="b" d="M379.15,17.26c-1.25,0-2.34,0-2.93,0l-2.07-3.19c-.14-.19-.24-.27-.32-.29h-.14v1.71c0,1,.08,1.07.94,1.2v.55H370.7v-.55c.84-.13.92-.16.92-1.2V8.21c0-.86-.08-.94-.92-1.13v-.5a14.1,14.1,0,0,0,3-.55v7.3a1.92,1.92,0,0,0,.89-.62,9.33,9.33,0,0,0,1.17-1.42c.2-.36-.06-.52-.65-.61v-.53l3.42-.13v.51a3.11,3.11,0,0,0-2.06,1c-.26.26-.61.69-1.06,1.2.4.63,1.91,2.66,2.35,3.21a1.78,1.78,0,0,0,1.4.81Z" transform="translate(0 -0.15)"/><path class="b" d="M379.37,17.26v-.55c.86-.11,1-.17,1-1.31V12.28c0-1.07-.08-1.14-.83-1.24v-.52a18,18,0,0,0,2.89-.58V15.4c0,1.09.07,1.2,1,1.31v.55ZM381.24,9a1.16,1.16,0,0,1-1.15-1.13,1.15,1.15,0,0,1,1.17-1.14,1.12,1.12,0,0,1,1.15,1.14A1.14,1.14,0,0,1,381.24,9Z" transform="translate(0 -0.15)"/><path class="b" d="M389.54,17.45a1.49,1.49,0,0,1-1-.34,1.58,1.58,0,0,1-.41-.59,6,6,0,0,1-1.7.93,2.1,2.1,0,0,1-2.18-2.07c0-.85.39-1.23,1.24-1.57a13.43,13.43,0,0,0,2.57-1.05v-.71c0-.83-.3-1.29-1-1.29a.76.76,0,0,0-.64.32,2.86,2.86,0,0,0-.38,1.05.64.64,0,0,1-.69.55,1,1,0,0,1-.95-.83c0-.29.2-.5.56-.76A7.88,7.88,0,0,1,387.54,10a2.81,2.81,0,0,1,1.65.46,2.16,2.16,0,0,1,.88,2v2.77c0,.77.26,1,.52,1a1.16,1.16,0,0,0,.49-.13l.18.55Zm-1.47-4-.89.5a1.16,1.16,0,0,0-.79,1.09,1.08,1.08,0,0,0,1,1.21.88.88,0,0,0,.7-.25Z" transform="translate(0 -0.15)"/><path class="b" d="M401.48,9.49c-.32-1-.77-2.19-2.24-2.19a1.48,1.48,0,0,0-1.54,1.55c0,.88.6,1.41,2,2.11,1.72.85,2.81,1.69,2.81,3.27,0,1.89-1.57,3.27-3.86,3.27A9.34,9.34,0,0,1,396,17c-.1-.37-.37-2-.48-2.79l.62-.14c.32,1,1.22,2.75,2.79,2.75a1.48,1.48,0,0,0,1.57-1.63c0-.93-.58-1.47-1.92-2.19-1.67-.9-2.76-1.7-2.76-3.36s1.32-3,3.72-3a11.79,11.79,0,0,1,2.29.29c.06.59.17,1.42.3,2.43Z" transform="translate(0 -0.15)"/><path class="b" d="M411.67,16.87c-1,.13-2,.34-3,.58V16.36a3.56,3.56,0,0,1-2.21,1.09,2,2,0,0,1-2.09-2.29V11.85c0-.74-.1-.82-.53-.93l-.34-.1v-.51c.82,0,2.08-.15,3-.27,0,.67-.05,1.5-.05,2.41v2.34c0,1,.53,1.39,1.09,1.39a1.41,1.41,0,0,0,1.15-.46V11.86c0-.73-.08-.86-.53-.94l-.48-.1v-.51c.93,0,2.29-.15,3.09-.27v5.21c0,.84.1,1,.61,1.06l.35,0Z" transform="translate(0 -0.15)"/><path class="b" d="M415.74,10.26a2.72,2.72,0,0,1,1.13-.3,3.25,3.25,0,0,1,3.25,3.37,4.15,4.15,0,0,1-4.21,4.12,7.54,7.54,0,0,1-2.85-.58c0-.38,0-.83,0-1.23V8.23c0-.91-.1-1-1-1.11V6.58A21.57,21.57,0,0,0,415.14,6v4.5Zm-.6,5.23a1.54,1.54,0,0,0,.1.55,1.36,1.36,0,0,0,1.14.74c.84,0,1.47-1,1.47-2.92s-1-2.85-2-2.85a2.2,2.2,0,0,0-.74.12Z" transform="translate(0 -0.15)"/><path class="b" d="M424.57,17.27a1.74,1.74,0,0,1-.64.18c-1.23,0-2-.58-2-2V11h-1l-.09-.19.46-.61H422V8.82c.54-.38,1.33-.9,1.89-1.28l.21.13c0,.43-.05,1.28,0,2.48h1.6a.69.69,0,0,1-.12.8H424v3.92c0,1.25.52,1.39.82,1.39a2,2,0,0,0,.77-.16l.16.58Z" transform="translate(0 -0.15)"/><path class="b" d="M430.09,10a3.56,3.56,0,0,1,3.68,3.61,3.77,3.77,0,1,1-7.54.18A3.77,3.77,0,0,1,430.09,10Zm-.19.64c-.69,0-1.36.72-1.36,2.69s.65,3.5,1.66,3.5c.61,0,1.26-.41,1.26-2.75S430.89,10.6,429.9,10.6Z" transform="translate(0 -0.15)"/><path class="b" d="M443.56,17.26v-.55c.64-.09.75-.16.75-1.14V12.81c0-1.33-.62-1.57-1.12-1.57a1.81,1.81,0,0,0-1.18.49c0,.2,0,.44,0,.68v3.23c0,.9,0,1,.79,1.07v.55h-3.61v-.55c.71-.09.77-.14.77-1.07V12.73c0-1.14-.45-1.51-1-1.51a2,2,0,0,0-1.23.48v3.94c0,.9.1,1,.69,1.07v.55h-3.67v-.55c.88-.11.93-.17.93-1.14V12.18c0-.89,0-1-.77-1.15v-.51a17.09,17.09,0,0,0,2.82-.61v1.2c.35-.24.64-.45,1-.66a2.54,2.54,0,0,1,1.36-.49,1.84,1.84,0,0,1,1.79,1.21c.38-.29.7-.51,1.1-.78a2.42,2.42,0,0,1,1.28-.43c1.4,0,2.13.94,2.13,2.57v3.11c0,.88.08.94.87,1.07v.55Z" transform="translate(0 -0.15)"/><path class="b" d="M454.47,15.69a3.64,3.64,0,0,1-2.93,1.76A3.27,3.27,0,0,1,448.18,14a4.2,4.2,0,0,1,1.2-2.88,3.59,3.59,0,0,1,2.5-1.12,2.62,2.62,0,0,1,2.64,2.61c0,.27,0,.54-.21.59s-2.56.19-4.11.25c.06,1.7,1,2.57,2.16,2.57a2.78,2.78,0,0,0,1.83-.73Zm-2.91-5.08c-.64,0-1.18.75-1.28,2l1.94-.05c.22,0,.32-.05.32-.32C452.55,11.46,452.18,10.61,451.56,10.61Z" transform="translate(0 -0.15)"/><path class="b" d="M460.07,17.26v-.55c.67-.09.72-.16.72-1.26V12.71c0-1.14-.56-1.49-1.12-1.49a2,2,0,0,0-1.2.48v3.87c0,1,.07,1.05.72,1.14v.55h-3.71v-.55c.83-.14.93-.16.93-1.2V12.18c0-1-.13-1-.84-1.15v-.51a17.13,17.13,0,0,0,2.93-.61c0,.22,0,.78,0,1.15.32-.22.66-.46,1-.69a2.16,2.16,0,0,1,1.24-.41c1.3,0,2.12.94,2.12,2.57v3c0,1,.09,1,.86,1.15v.55Z" transform="translate(0 -0.15)"/><path class="b" d="M467.83,17.27a1.74,1.74,0,0,1-.64.18c-1.23,0-2-.58-2-2V11h-1l-.1-.19.47-.61h.65V8.82l1.89-1.28.21.13c0,.43-.05,1.28,0,2.48h1.6a.7.7,0,0,1-.13.8h-1.47v3.92c0,1.25.51,1.39.81,1.39a2,2,0,0,0,.77-.16l.16.58Z" transform="translate(0 -0.15)"/><path class="b" d="M473.35,10A3.55,3.55,0,0,1,477,13.57a3.77,3.77,0,1,1-7.54.18A3.77,3.77,0,0,1,473.35,10Zm-.19.64c-.69,0-1.36.72-1.36,2.69s.66,3.5,1.66,3.5c.61,0,1.27-.41,1.27-2.75S474.15,10.6,473.16,10.6Z" transform="translate(0 -0.15)"/><path class="b" d="M482.6,12.23c-.42-1.12-1-1.63-1.71-1.63a.82.82,0,0,0-.85.84c0,.57.4.87,1.23,1.24,1.3.57,2.18,1.12,2.18,2.38,0,1.6-1.52,2.39-2.91,2.39a5.33,5.33,0,0,1-2-.48c-.06-.37-.21-1.48-.25-2l.52-.09c.34,1,1,1.95,2,1.95a.81.81,0,0,0,.91-.83c0-.5-.24-.87-1.23-1.35s-2.08-1.07-2.08-2.4,1-2.25,2.73-2.25a7.4,7.4,0,0,1,1.73.24c.05.43.19,1.45.26,1.89Z" transform="translate(0 -0.15)"/><path class="b" d="M489.85,17.45a1.47,1.47,0,0,1-1-.34,1.51,1.51,0,0,1-.42-.59,5.9,5.9,0,0,1-1.7.93,2.1,2.1,0,0,1-2.17-2.07c0-.85.38-1.23,1.23-1.57a13.15,13.15,0,0,0,2.57-1.05v-.71c0-.83-.3-1.29-1-1.29a.78.78,0,0,0-.64.32,3.06,3.06,0,0,0-.38,1.05.63.63,0,0,1-.69.55,1,1,0,0,1-.94-.83c0-.29.19-.5.56-.76A7.78,7.78,0,0,1,487.85,10a2.83,2.83,0,0,1,1.65.46,2.19,2.19,0,0,1,.88,2v2.77c0,.77.25,1,.51,1a1.16,1.16,0,0,0,.49-.13l.18.55Zm-1.48-4-.89.5a1.16,1.16,0,0,0-.79,1.09,1.08,1.08,0,0,0,1,1.21.87.87,0,0,0,.7-.25Z" transform="translate(0 -0.15)"/><path class="b" d="M500.17,20.3a8.92,8.92,0,0,1-3.83-7.4,9,9,0,0,1,3.83-7.36l.45.49a9.9,9.9,0,0,0-2.41,6.89c0,2.86,1,5.57,2.41,6.9Z" transform="translate(0 -0.15)"/><path class="b" d="M508,15.7a3.7,3.7,0,0,1-2.79,1.75,3.38,3.38,0,0,1-3.5-3.44A3.83,3.83,0,0,1,503.38,11a4.65,4.65,0,0,1,2.79-1,2.5,2.5,0,0,1,1.41.38.67.67,0,0,1,.3.59,1,1,0,0,1-.72.9.5.5,0,0,1-.35-.18,2.9,2.9,0,0,0-1.67-.83c-.62,0-1.37.61-1.37,2.34A2.56,2.56,0,0,0,506,16a2.39,2.39,0,0,0,1.71-.68Z" transform="translate(0 -0.15)"/><path class="b" d="M512.58,10a3.55,3.55,0,0,1,3.68,3.61,3.77,3.77,0,1,1-7.54.18A3.77,3.77,0,0,1,512.58,10Zm-.19.64c-.69,0-1.36.72-1.36,2.69s.66,3.5,1.66,3.5c.61,0,1.27-.41,1.27-2.75S513.38,10.6,512.39,10.6Z" transform="translate(0 -0.15)"/><path class="b" d="M521.83,17.26v-.55c.67-.09.72-.16.72-1.26V12.71c0-1.14-.56-1.49-1.12-1.49a1.94,1.94,0,0,0-1.2.48v3.87c0,1,.06,1.05.72,1.14v.55h-3.71v-.55c.83-.14.93-.16.93-1.2V12.18c0-1-.13-1-.84-1.15v-.51a17.13,17.13,0,0,0,2.93-.61c0,.22,0,.78,0,1.15.32-.22.66-.46,1-.69A2.18,2.18,0,0,1,522.5,10c1.3,0,2.12.94,2.12,2.57v3c0,1,.09,1,.86,1.15v.55Z" transform="translate(0 -0.15)"/><path class="b" d="M532.74,15.69a3.64,3.64,0,0,1-2.93,1.76A3.27,3.27,0,0,1,526.45,14a4.2,4.2,0,0,1,1.2-2.88,3.59,3.59,0,0,1,2.5-1.12,2.62,2.62,0,0,1,2.64,2.61c0,.27,0,.54-.21.59s-2.56.19-4.11.25c.06,1.7,1,2.57,2.16,2.57a2.78,2.78,0,0,0,1.83-.73Zm-2.91-5.08c-.64,0-1.18.75-1.28,2l1.94-.05c.22,0,.32-.05.32-.32C530.82,11.46,530.46,10.61,529.83,10.61Z" transform="translate(0 -0.15)"/><path class="b" d="M538.46,17.26v-.55c.75-.09.86-.21.86-1.14V7.65a1.75,1.75,0,0,0-1.38-.82,1,1,0,0,0-.86.5,4.18,4.18,0,0,0-.31,1.91v.91h1.54c.08.16,0,.69-.21.8h-1.33v4.66c0,.88.16,1,1,1.1v.55h-4v-.55c.88-.13,1-.21,1-1.1V11h-1.06l-.08-.21.4-.59h.74a3.78,3.78,0,0,1,.37-1.75,4.47,4.47,0,0,1,1.37-1.58A4.32,4.32,0,0,1,538.71,6a3.28,3.28,0,0,1,1.63.36,5.16,5.16,0,0,0,.92-.29l.16.08c0,.53,0,1,0,1.58v7.81c0,.95.13,1,1,1.14v.55Z" transform="translate(0 -0.15)"/><path class="b" d="M547.11,10a3.55,3.55,0,0,1,3.68,3.61,3.77,3.77,0,1,1-7.54.18A3.77,3.77,0,0,1,547.11,10Zm-.19.64c-.69,0-1.36.72-1.36,2.69s.65,3.5,1.66,3.5c.61,0,1.27-.41,1.27-2.75S547.91,10.6,546.92,10.6Z" transform="translate(0 -0.15)"/><path class="b" d="M562.52,10.69c-.77.15-.88.23-1.23,1.08-.58,1.48-1.27,3.44-2,5.66h-.68c-.59-1.49-1.26-3-1.85-4.42-.61,1.49-1.2,2.92-1.78,4.42h-.66c-.64-2-1.33-3.95-1.92-5.74-.27-.77-.35-.9-1.12-1v-.54h4v.54c-.93.13-1,.29-.85.8.31,1,.63,2.12.93,3.09.59-1.41,1.17-3,1.67-4.37h.67c.54,1.44,1.18,3,1.81,4.44.27-.79.81-2.34,1-3.05s0-.8-1.17-.91v-.54h3.2Z" transform="translate(0 -0.15)"/><path class="b" d="M569.09,15.69a3.64,3.64,0,0,1-2.92,1.76A3.27,3.27,0,0,1,562.8,14a4.2,4.2,0,0,1,1.2-2.88A3.59,3.59,0,0,1,566.5,10a2.62,2.62,0,0,1,2.64,2.61c0,.27,0,.54-.21.59s-2.56.19-4.11.25c.06,1.7,1,2.57,2.16,2.57a2.76,2.76,0,0,0,1.83-.73Zm-2.91-5.08c-.64,0-1.18.75-1.28,2l1.94-.05c.22,0,.32-.05.32-.32C567.17,11.46,566.81,10.61,566.18,10.61Z" transform="translate(0 -0.15)"/><path class="b" d="M574.33,17.26H570.1v-.55c.85-.09.93-.17.93-1.14v-3.5c0-.8-.07-.88-.82-1v-.5a14.8,14.8,0,0,0,2.88-.61v1.73c.72-1.1,1.3-1.69,1.95-1.69a1,1,0,0,1,1.05,1,1.56,1.56,0,0,1-.82,1.36.47.47,0,0,1-.5-.08c-.27-.23-.48-.48-.75-.48s-.64.21-.93.81v3c0,1,.12,1,1.24,1.14Z" transform="translate(0 -0.15)"/><path class="b" d="M577.22,5.54A8.89,8.89,0,0,1,581,12.93a9,9,0,0,1-3.82,7.37l-.45-.5a9.87,9.87,0,0,0,2.4-6.88c0-2.87-1-5.57-2.4-6.9Z" transform="translate(0 -0.15)"/><rect class="c" x="293.41" y="1.79" width="24.19" height="19.43" rx="8.5"/><path class="b" d="M305.85,14.51c-.26.86-.56,2-.72,2.64h-6.47v-.43c.85-.84,1.78-1.78,2.59-2.69A5.41,5.41,0,0,0,303,10.35c0-1.14-.56-1.88-1.65-1.88a2.79,2.79,0,0,0-2.18,1.43l-.48-.4,1-1.52a3.16,3.16,0,0,1,2.45-1,2.79,2.79,0,0,1,2.94,2.86c0,1.25-.48,2.16-2.11,3.67-.62.57-1.52,1.4-2.1,1.9h2.69c1,0,1.19-.06,1.78-1.07Z" transform="translate(0 -0.15)"/><path class="b" d="M307.08,9.05l.8-1.06a3,3,0,0,1,2.32-1,2.33,2.33,0,0,1,2.62,2.22,1.57,1.57,0,0,1-.54,1.15,7.84,7.84,0,0,1-1.23.87c1.65.33,2.54,1.23,2.54,2.43,0,2.55-3.52,3.68-4.54,3.68a2.85,2.85,0,0,1-1.78-.53.79.79,0,0,1-.38-.65,1.08,1.08,0,0,1,.43-.79.5.5,0,0,1,.65,0,3.31,3.31,0,0,0,2.09,1c.81,0,1.44-.6,1.44-2.09a2,2,0,0,0-2-2.06,3.38,3.38,0,0,0-.88.1l-.11-.56c1.48-.5,2.31-1,2.31-2.12a1.33,1.33,0,0,0-1.36-1.47,2.41,2.41,0,0,0-1.94,1.22Z" transform="translate(0 -0.15)"/></svg>