<svg id="Discovery" xmlns="http://www.w3.org/2000/svg" viewBox="0 0 284.04 17"><defs><style>.cls-1{fill:#ff931e;opacity:0.79;}.cls-2{font-size:7.91px;fill:#1818a0;font-family:Poppins-Bold, Poppins;font-weight:700;}.cls-3{fill:#4c4c4c;}</style></defs><g id="number"><rect class="cls-1" width="17" height="17" rx="8.5"/><text class="cls-2" transform="translate(4.12 11) scale(1.06 1)">23</text></g><path class="cls-3" d="M680.64,172.2h-.48c-2-.1-2.62-.53-3.1-1.2a28.1,28.1,0,0,1-1.65-2.82.9.9,0,0,0-1-.53l-.32,0V170c0,1.3.16,1.41,1.36,1.55v.6h-4.89v-.6c1.21-.12,1.36-.25,1.36-1.55v-6.13c0-1.26-.16-1.44-1.36-1.54v-.59h4.64a4.89,4.89,0,0,1,2.9.61,2.45,2.45,0,0,1,1.07,2.13,2.73,2.73,0,0,1-2,2.59c.24.48.86,1.52,1.34,2.26a12.05,12.05,0,0,0,1.22,1.66,1.93,1.93,0,0,0,1,.71ZM674.55,167a2.31,2.31,0,0,0,1.56-.42,2.27,2.27,0,0,0,.76-1.87c0-1.7-1-2.31-1.88-2.31-.43,0-.64.07-.73.16s-.15.29-.15.61V167Z" transform="translate(-648 -160)"/><path class="cls-3" d="M688.92,171.72c-1,.13-2,.34-3,.58v-1.09a3.54,3.54,0,0,1-2.2,1.09,2,2,0,0,1-2.1-2.29V166.7c0-.74-.1-.82-.53-.93l-.34-.1v-.51c.82,0,2.09-.14,3-.27,0,.67,0,1.5,0,2.41v2.34c0,1,.53,1.39,1.09,1.39a1.41,1.41,0,0,0,1.15-.46v-3.86c0-.73-.08-.86-.52-.94l-.48-.1v-.51a29.14,29.14,0,0,0,3.09-.27v5.22c0,.83.09,1,.6,1l.36,0Z" transform="translate(-648 -160)"/><path class="cls-3" d="M698,171.69a26.7,26.7,0,0,0-3.14.62v-.92l-1,.62a1.48,1.48,0,0,1-.8.29,3.44,3.44,0,0,1-3.29-3.55,4.16,4.16,0,0,1,4.43-3.94,3.49,3.49,0,0,1,.64.05V163c0-.84-.08-.92-1.07-1v-.53a22.56,22.56,0,0,0,3.15-.54v9.2c0,.86.1.94.7,1l.36,0Zm-3.14-5.36a1.24,1.24,0,0,0-1.2-.8c-.5,0-1.57.33-1.57,2.66,0,2.09,1.17,2.86,1.89,2.88a1.44,1.44,0,0,0,.88-.28Z" transform="translate(-648 -160)"/><path class="cls-3" d="M702,165.11a2.8,2.8,0,0,1,1.14-.3,3.26,3.26,0,0,1,3.25,3.38,4.15,4.15,0,0,1-4.21,4.11,7.51,7.51,0,0,1-2.85-.58c0-.38,0-.83,0-1.23v-7.41c0-.91-.1-1-1-1.11v-.54a21.39,21.39,0,0,0,3.06-.54v4.49Zm-.59,5.24a1.53,1.53,0,0,0,.1.54,1.34,1.34,0,0,0,1.13.74c.85,0,1.48-.95,1.48-2.92s-1-2.85-2-2.85a2.2,2.2,0,0,0-.74.12Z" transform="translate(-648 -160)"/><path class="cls-3" d="M713.78,170.54a3.67,3.67,0,0,1-2.93,1.76,3.27,3.27,0,0,1-3.36-3.49,4.2,4.2,0,0,1,1.2-2.88,3.57,3.57,0,0,1,2.49-1.12,2.63,2.63,0,0,1,2.65,2.61c0,.27,0,.54-.21.59s-2.56.19-4.12.25c.07,1.7,1,2.57,2.17,2.57a2.8,2.8,0,0,0,1.82-.72Zm-2.91-5.08c-.65,0-1.19.76-1.29,2l1.94,0c.23,0,.32-.05.32-.32C711.86,166.31,711.49,165.46,710.87,165.46Z" transform="translate(-648 -160)"/><path class="cls-3" d="M721.27,170.55a3.7,3.7,0,0,1-2.79,1.75,3.38,3.38,0,0,1-3.5-3.44,3.8,3.8,0,0,1,1.63-3.06,4.7,4.7,0,0,1,2.78-1,2.5,2.5,0,0,1,1.41.38.66.66,0,0,1,.31.59,1,1,0,0,1-.72.9.5.5,0,0,1-.36-.18,2.86,2.86,0,0,0-1.66-.83c-.62,0-1.38.61-1.38,2.34a2.56,2.56,0,0,0,2.24,2.82,2.39,2.39,0,0,0,1.72-.68Z" transform="translate(-648 -160)"/><path class="cls-3" d="M730.15,172.11c-1.25,0-2.34,0-2.93,0-.05-.08-2-3.07-2.07-3.19s-.24-.27-.32-.28a.39.39,0,0,0-.14,0v1.71c0,1,.08,1.07.94,1.2v.55H721.7v-.55c.84-.13.92-.16.92-1.2v-7.3c0-.86-.08-.94-.92-1.13v-.5a14.74,14.74,0,0,0,3-.54v7.3a2,2,0,0,0,.89-.63,8.87,8.87,0,0,0,1.17-1.42c.2-.36-.06-.52-.65-.61V165l3.42-.13v.51a3.11,3.11,0,0,0-2.06,1c-.26.26-.61.69-1.06,1.2.4.63,1.91,2.66,2.35,3.21a1.78,1.78,0,0,0,1.4.81Z" transform="translate(-648 -160)"/><path class="cls-3" d="M730.37,172.11v-.55c.86-.11,1-.17,1-1.31v-3.12c0-1.07-.08-1.14-.83-1.23v-.53a17,17,0,0,0,2.89-.58v5.46c0,1.09.07,1.2,1,1.31v.55Zm1.87-8.3a1.16,1.16,0,0,1-1.15-1.13,1.15,1.15,0,0,1,1.17-1.14,1.12,1.12,0,0,1,1.15,1.14A1.14,1.14,0,0,1,732.24,163.81Z" transform="translate(-648 -160)"/><path class="cls-3" d="M740.54,172.3a1.49,1.49,0,0,1-1-.34,1.58,1.58,0,0,1-.41-.59,6,6,0,0,1-1.7.93,2.1,2.1,0,0,1-2.18-2.07c0-.84.39-1.23,1.24-1.56a14,14,0,0,0,2.57-1.06v-.71c0-.83-.3-1.29-1-1.29a.79.79,0,0,0-.64.32,2.86,2.86,0,0,0-.38,1,.64.64,0,0,1-.69.55,1,1,0,0,1-1-.83c0-.29.2-.5.56-.76a7.88,7.88,0,0,1,2.56-1.13,2.81,2.81,0,0,1,1.65.46,2.16,2.16,0,0,1,.88,2V170c0,.77.26,1,.52,1a1.16,1.16,0,0,0,.49-.13l.18.55Zm-1.47-4-.89.5a1.17,1.17,0,0,0-.79,1.09,1.1,1.1,0,0,0,1,1.22.9.9,0,0,0,.7-.26Z" transform="translate(-648 -160)"/><path class="cls-3" d="M752.48,164.34c-.32-1-.77-2.19-2.24-2.19a1.48,1.48,0,0,0-1.54,1.55c0,.88.6,1.41,2,2.12,1.72.84,2.81,1.68,2.81,3.26,0,1.89-1.57,3.27-3.86,3.27a9.34,9.34,0,0,1-2.69-.5c-.1-.37-.37-2-.48-2.78l.62-.15c.32,1,1.22,2.75,2.79,2.75a1.47,1.47,0,0,0,1.57-1.63c0-.93-.58-1.47-1.92-2.19-1.67-.9-2.76-1.7-2.76-3.36s1.32-3,3.72-3a11.79,11.79,0,0,1,2.29.29c.06.59.17,1.42.3,2.43Z" transform="translate(-648 -160)"/><path class="cls-3" d="M762.67,171.72c-1,.13-2,.34-3,.58v-1.09a3.56,3.56,0,0,1-2.21,1.09,2,2,0,0,1-2.09-2.29V166.7c0-.74-.1-.82-.53-.93l-.34-.1v-.51c.82,0,2.08-.14,3-.27,0,.67-.05,1.5-.05,2.41v2.34c0,1,.53,1.39,1.09,1.39a1.41,1.41,0,0,0,1.15-.46v-3.86c0-.73-.08-.86-.53-.94l-.48-.1v-.51a28.9,28.9,0,0,0,3.09-.27v5.22c0,.83.1,1,.61,1l.35,0Z" transform="translate(-648 -160)"/><path class="cls-3" d="M766.74,165.11a2.72,2.72,0,0,1,1.13-.3,3.25,3.25,0,0,1,3.25,3.38,4.15,4.15,0,0,1-4.21,4.11,7.54,7.54,0,0,1-2.85-.58c0-.38,0-.83,0-1.23v-7.41c0-.91-.1-1-1-1.11v-.54a21.51,21.51,0,0,0,3-.54v4.49Zm-.6,5.24a1.53,1.53,0,0,0,.1.54,1.36,1.36,0,0,0,1.14.74c.84,0,1.47-.95,1.47-2.92s-1-2.85-2-2.85a2.2,2.2,0,0,0-.74.12Z" transform="translate(-648 -160)"/><path class="cls-3" d="M775.57,172.12a1.74,1.74,0,0,1-.64.18,1.76,1.76,0,0,1-2-2V165.8h-1l-.09-.19.46-.61H773v-1.33c.54-.38,1.33-.9,1.89-1.28l.21.13c0,.43,0,1.28,0,2.48h1.6a.69.69,0,0,1-.12.8H775v3.92c0,1.25.52,1.39.82,1.39a1.84,1.84,0,0,0,.77-.16l.16.58Z" transform="translate(-648 -160)"/><path class="cls-3" d="M781.09,164.81a3.56,3.56,0,0,1,3.68,3.61,3.77,3.77,0,1,1-7.54.18A3.77,3.77,0,0,1,781.09,164.81Zm-.19.64c-.69,0-1.36.72-1.36,2.69s.65,3.5,1.66,3.5c.61,0,1.26-.41,1.26-2.75S781.89,165.45,780.9,165.45Z" transform="translate(-648 -160)"/><path class="cls-3" d="M794.56,172.11v-.55c.64-.09.75-.16.75-1.13v-2.77c0-1.33-.62-1.57-1.12-1.57a1.81,1.81,0,0,0-1.18.49c0,.2,0,.44,0,.68v3.23c0,.9.05,1,.79,1.07v.55h-3.61v-.55c.71-.09.77-.14.77-1.07v-2.91c0-1.14-.45-1.51-1-1.51a2,2,0,0,0-1.23.48v3.94c0,.9.1,1,.69,1.07v.55h-3.67v-.55c.88-.11.93-.17.93-1.13V167c0-.89,0-1-.77-1.15v-.51a17.09,17.09,0,0,0,2.82-.61V166c.35-.24.64-.45,1-.66a2.54,2.54,0,0,1,1.36-.49,1.84,1.84,0,0,1,1.79,1.21c.38-.28.7-.51,1.1-.78a2.51,2.51,0,0,1,1.28-.43c1.4,0,2.13.94,2.13,2.57v3.11c0,.88.08.94.87,1.07v.55Z" transform="translate(-648 -160)"/><path class="cls-3" d="M805.47,170.54a3.64,3.64,0,0,1-2.93,1.76,3.27,3.27,0,0,1-3.36-3.49,4.2,4.2,0,0,1,1.2-2.88,3.59,3.59,0,0,1,2.5-1.12,2.62,2.62,0,0,1,2.64,2.61c0,.27,0,.54-.21.59s-2.56.19-4.11.25c.06,1.7,1,2.57,2.16,2.57a2.82,2.82,0,0,0,1.83-.72Zm-2.91-5.08c-.64,0-1.18.76-1.28,2l1.94,0c.22,0,.32-.05.32-.32C803.55,166.31,803.18,165.46,802.56,165.46Z" transform="translate(-648 -160)"/><path class="cls-3" d="M811.07,172.11v-.55c.67-.09.72-.16.72-1.26v-2.74c0-1.14-.56-1.49-1.12-1.49a2,2,0,0,0-1.2.48v3.88c0,1,.07,1,.72,1.13v.55h-3.71v-.55c.83-.14.93-.16.93-1.2V167c0-1-.13-1-.84-1.15v-.51a16.23,16.23,0,0,0,2.93-.61c0,.22,0,.78,0,1.15.32-.22.66-.46,1-.69a2.23,2.23,0,0,1,1.24-.41c1.3,0,2.12.94,2.12,2.57v3c0,1,.09,1,.86,1.15v.55Z" transform="translate(-648 -160)"/><path class="cls-3" d="M818.83,172.12a1.74,1.74,0,0,1-.64.18,1.76,1.76,0,0,1-2-2V165.8h-1l-.1-.19.47-.61h.65v-1.33l1.89-1.28.21.13c0,.43-.05,1.28,0,2.48h1.6a.69.69,0,0,1-.13.8h-1.47v3.92c0,1.25.51,1.39.81,1.39a1.81,1.81,0,0,0,.77-.16l.16.58Z" transform="translate(-648 -160)"/><path class="cls-3" d="M824.35,164.81a3.55,3.55,0,0,1,3.68,3.61,3.77,3.77,0,1,1-7.54.18A3.77,3.77,0,0,1,824.35,164.81Zm-.19.64c-.69,0-1.36.72-1.36,2.69s.66,3.5,1.66,3.5c.61,0,1.27-.41,1.27-2.75S825.15,165.45,824.16,165.45Z" transform="translate(-648 -160)"/><path class="cls-3" d="M833.6,167.08c-.42-1.12-1-1.63-1.71-1.63a.82.82,0,0,0-.85.85c0,.56.4.86,1.23,1.23,1.3.57,2.18,1.12,2.18,2.38,0,1.6-1.52,2.39-2.91,2.39a5.33,5.33,0,0,1-2-.48c-.06-.37-.21-1.47-.25-2l.52-.1c.34,1,1,1.95,2,1.95a.81.81,0,0,0,.91-.83c0-.5-.24-.86-1.23-1.34s-2.08-1.08-2.08-2.41,1-2.25,2.73-2.25a7.4,7.4,0,0,1,1.73.24c0,.43.19,1.45.26,1.89Z" transform="translate(-648 -160)"/><path class="cls-3" d="M840.85,172.3a1.47,1.47,0,0,1-1-.34,1.51,1.51,0,0,1-.42-.59,5.9,5.9,0,0,1-1.7.93,2.1,2.1,0,0,1-2.17-2.07c0-.84.38-1.23,1.23-1.56a14.17,14.17,0,0,0,2.58-1.06v-.71c0-.83-.31-1.29-1-1.29a.8.8,0,0,0-.64.32,3.06,3.06,0,0,0-.38,1,.63.63,0,0,1-.69.55,1,1,0,0,1-.94-.83c0-.29.19-.5.56-.76a7.78,7.78,0,0,1,2.56-1.13,2.83,2.83,0,0,1,1.65.46,2.19,2.19,0,0,1,.88,2V170c0,.77.25,1,.51,1a1.16,1.16,0,0,0,.49-.13l.18.55Zm-1.47-4-.9.5a1.17,1.17,0,0,0-.79,1.09,1.1,1.1,0,0,0,1,1.22.92.92,0,0,0,.71-.26Z" transform="translate(-648 -160)"/><path class="cls-3" d="M851.17,175.15a8.92,8.92,0,0,1-3.83-7.4,9,9,0,0,1,3.83-7.36l.45.5a9.85,9.85,0,0,0-2.41,6.88c0,2.86,1,5.57,2.41,6.9Z" transform="translate(-648 -160)"/><path class="cls-3" d="M859,170.55a3.7,3.7,0,0,1-2.79,1.75,3.38,3.38,0,0,1-3.5-3.44,3.83,3.83,0,0,1,1.63-3.06,4.72,4.72,0,0,1,2.79-1,2.5,2.5,0,0,1,1.41.38.67.67,0,0,1,.3.59,1,1,0,0,1-.72.9.5.5,0,0,1-.35-.18,2.9,2.9,0,0,0-1.67-.83c-.62,0-1.37.61-1.37,2.34a2.56,2.56,0,0,0,2.24,2.82,2.39,2.39,0,0,0,1.71-.68Z" transform="translate(-648 -160)"/><path class="cls-3" d="M863.58,164.81a3.55,3.55,0,0,1,3.68,3.61,3.77,3.77,0,1,1-7.54.18A3.77,3.77,0,0,1,863.58,164.81Zm-.19.64c-.69,0-1.36.72-1.36,2.69s.66,3.5,1.66,3.5c.61,0,1.27-.41,1.27-2.75S864.38,165.45,863.39,165.45Z" transform="translate(-648 -160)"/><path class="cls-3" d="M872.83,172.11v-.55c.67-.09.72-.16.72-1.26v-2.74c0-1.14-.56-1.49-1.12-1.49a1.94,1.94,0,0,0-1.2.48v3.88c0,1,.06,1,.72,1.13v.55h-3.71v-.55c.83-.14.93-.16.93-1.2V167c0-1-.13-1-.84-1.15v-.51a16.23,16.23,0,0,0,2.93-.61c0,.22,0,.78,0,1.15.32-.22.66-.46,1-.69a2.26,2.26,0,0,1,1.25-.41c1.3,0,2.12.94,2.12,2.57v3c0,1,.09,1,.86,1.15v.55Z" transform="translate(-648 -160)"/><path class="cls-3" d="M883.74,170.54a3.64,3.64,0,0,1-2.93,1.76,3.27,3.27,0,0,1-3.36-3.49,4.2,4.2,0,0,1,1.2-2.88,3.59,3.59,0,0,1,2.5-1.12,2.62,2.62,0,0,1,2.64,2.61c0,.27,0,.54-.21.59s-2.56.19-4.11.25c.06,1.7,1,2.57,2.16,2.57a2.82,2.82,0,0,0,1.83-.72Zm-2.91-5.08c-.64,0-1.18.76-1.28,2l1.94,0c.22,0,.32-.05.32-.32C881.82,166.31,881.46,165.46,880.83,165.46Z" transform="translate(-648 -160)"/><path class="cls-3" d="M889.46,172.11v-.55c.75-.09.86-.21.86-1.13V162.5a1.74,1.74,0,0,0-1.38-.81,1,1,0,0,0-.86.49,4.18,4.18,0,0,0-.31,1.91V165h1.54c.08.16,0,.69-.21.8h-1.33v4.66c0,.88.16,1,1,1.1v.55h-4v-.55c.88-.13,1-.21,1-1.1V165.8h-1.06l-.08-.21.4-.59h.74a3.78,3.78,0,0,1,.37-1.75,4.47,4.47,0,0,1,1.37-1.58,4.23,4.23,0,0,1,2.26-.78,3.28,3.28,0,0,1,1.63.35,5.16,5.16,0,0,0,.92-.29l.16.08c0,.53,0,1,0,1.58v7.82c0,.94.13,1,1,1.13v.55Z" transform="translate(-648 -160)"/><path class="cls-3" d="M898.11,164.81a3.55,3.55,0,0,1,3.68,3.61,3.77,3.77,0,1,1-7.54.18A3.77,3.77,0,0,1,898.11,164.81Zm-.19.64c-.69,0-1.36.72-1.36,2.69s.65,3.5,1.66,3.5c.61,0,1.27-.41,1.27-2.75S898.91,165.45,897.92,165.45Z" transform="translate(-648 -160)"/><path class="cls-3" d="M913.52,165.54c-.77.15-.88.23-1.23,1.08-.58,1.48-1.27,3.44-2,5.66h-.68c-.59-1.49-1.26-3-1.85-4.42-.61,1.49-1.2,2.92-1.78,4.42h-.66c-.64-2-1.33-3.95-1.92-5.74-.27-.77-.35-.9-1.12-1V165h4v.54c-.93.13-1,.29-.85.8.31,1,.63,2.12.93,3.09.59-1.41,1.17-3,1.67-4.37h.67c.54,1.44,1.18,3,1.81,4.44.27-.79.81-2.34,1-3s0-.8-1.17-.92V165h3.2Z" transform="translate(-648 -160)"/><path class="cls-3" d="M920.09,170.54a3.64,3.64,0,0,1-2.92,1.76,3.27,3.27,0,0,1-3.37-3.49,4.2,4.2,0,0,1,1.2-2.88,3.59,3.59,0,0,1,2.5-1.12,2.62,2.62,0,0,1,2.64,2.61c0,.27,0,.54-.21.59s-2.56.19-4.11.25c.06,1.7,1,2.57,2.16,2.57a2.8,2.8,0,0,0,1.83-.72Zm-2.91-5.08c-.64,0-1.18.76-1.28,2l1.94,0c.22,0,.32-.05.32-.32C918.17,166.31,917.81,165.46,917.18,165.46Z" transform="translate(-648 -160)"/><path class="cls-3" d="M925.33,172.11H921.1v-.55c.85-.09.93-.17.93-1.13v-3.51c0-.8-.07-.88-.82-1v-.5a15.54,15.54,0,0,0,2.88-.6v1.72c.72-1.1,1.3-1.69,1.95-1.69a1,1,0,0,1,1.05,1,1.56,1.56,0,0,1-.82,1.36.47.47,0,0,1-.5-.08c-.27-.23-.48-.48-.75-.48s-.64.21-.93.81v3.05c0,1,.12,1,1.24,1.13Z" transform="translate(-648 -160)"/><path class="cls-3" d="M928.22,160.39a8.89,8.89,0,0,1,3.82,7.39,9,9,0,0,1-3.82,7.37l-.45-.5a9.87,9.87,0,0,0,2.4-6.88c0-2.87-1-5.57-2.4-6.9Z" transform="translate(-648 -160)"/></svg>